<svg xmlns="http://www.w3.org/2000/svg" xmlns:xlink="http://www.w3.org/1999/xlink" id="Calque_1" x="0px" y="0px" width="1404.5px" height="491.9px" viewBox="0 0 1404.5 491.9" style="enable-background:new 0 0 1404.5 491.9;" xml:space="preserve"><style type="text/css">	.st0{display:none;fill:none;stroke:#007DC8;stroke-width:1.33;stroke-miterlimit:10;}	.st1{fill:#007DC8;}</style><rect x="-157.6" y="-162.4" class="st0" width="1724.6" height="816.6"></rect><path class="st1" d="M1398.5,259.2c2,3.6,3.6,7.5,4.5,11.6c1,4,1.5,8.2,1.4,12.3c0.1,4.7-0.8,9.3-2.4,13.7c-1.5,4-3.9,7.7-6.9,10.8  c-3,3.1-6.6,5.5-10.6,7.1c-4.3,1.7-9,2.6-13.7,2.5c-4.7,0.1-9.4-0.8-13.8-2.7c-4-1.7-7.6-4.2-10.6-7.4c-2.9-3.2-5.3-6.9-6.8-10.9  c-1.6-4.3-2.5-8.9-2.4-13.5c0-4.1,0.6-8.2,1.9-12.1c1.3-3.9,3.5-7.5,6.5-10.4l6,5.7c-2.4,2.2-4.2,4.9-5.4,7.9  c-1.2,3-1.9,6.3-1.9,9.5c0,3.5,0.7,7,2,10.2c2.6,6.2,7.6,11.1,13.9,13.6c3.4,1.3,7,2,10.7,1.9c3.6,0,7.2-0.6,10.6-1.9  c3.1-1.2,6-3.1,8.4-5.4c2.4-2.4,4.3-5.2,5.6-8.4c1.4-3.4,2-7.1,2-10.8c0-2.7-0.3-5.5-0.9-8.1c-0.6-2.7-1.5-5.3-2.8-7.8h-19.6v14.7  h-7V259L1398.5,259.2z"></path><path class="st1" d="M1339,243.3V227c0-3.1,0.2-6.1,0.5-9.2c0.3-2.8,1.1-5.6,2.3-8.2c1.2-2.4,3-4.4,5.3-5.9s5.5-2.2,9.4-2.2  c4.7,0,8.5,1.4,11.4,4.2c2.9,2.8,4.8,6.7,5.5,11.7l29.4-18.1v9.3l-28.7,17.3v9.8h28.7v7.6L1339,243.3z M1367.1,235.7v-6.8  c0-2.1,0-4.3-0.2-6.5c-0.1-2.1-0.5-4.2-1.2-6.2c-0.6-1.8-1.7-3.4-3.1-4.7c-1.7-1.3-3.9-2-6.1-1.9c-1.9-0.1-3.8,0.4-5.5,1.4  c-1.4,0.9-2.5,2.1-3.2,3.6c-0.8,1.6-1.3,3.3-1.5,5c-0.2,1.8-0.4,3.7-0.4,5.5v10.6H1367.1z"></path><path class="st1" d="M1404.5,158.4c0.1,4.6-0.8,9.1-2.5,13.4c-1.6,4-4,7.5-7,10.6c-3,3-6.7,5.4-10.7,7c-8.6,3.3-18.2,3.3-26.8,0  c-4-1.6-7.6-3.9-10.7-7c-3-3-5.4-6.6-7-10.6c-3.4-8.6-3.4-18.2,0-26.8c1.6-3.9,4-7.5,7-10.6c3-3,6.7-5.4,10.7-7  c8.6-3.3,18.2-3.3,26.8,0c4,1.6,7.6,3.9,10.7,7c3,3,5.4,6.6,7,10.6C1403.7,149.3,1404.6,153.8,1404.5,158.4z M1397.5,158.4  c0-3.5-0.7-7-2.1-10.2c-1.3-3-3.3-5.8-5.7-8c-2.5-2.3-5.3-4-8.4-5.2c-6.7-2.5-14-2.5-20.7,0c-3.1,1.2-6,2.9-8.4,5.2  c-2.4,2.3-4.4,5-5.7,8c-2.8,6.6-2.8,13.9,0,20.5c1.3,3,3.3,5.8,5.7,8c2.5,2.3,5.3,4,8.4,5.2c6.7,2.5,14,2.5,20.7,0  c3.1-1.2,6-2.9,8.4-5.2c2.4-2.2,4.4-5,5.7-8C1396.8,165.5,1397.5,162,1397.5,158.4L1397.5,158.4z"></path><path class="st1" d="M1378.5,64.9c3.4,0,6.7,0.4,9.9,1.3c3,0.8,5.8,2.2,8.3,4.1c2.5,2,4.4,4.6,5.7,7.4c2.8,7.2,2.8,15.2,0,22.4  c-1.3,2.9-3.2,5.4-5.7,7.5c-2.4,1.9-5.3,3.3-8.3,4.1c-3.2,0.9-6.6,1.3-9.9,1.3H1339v-7.6h38.5c2.5,0,5-0.3,7.5-0.8  c2.3-0.5,4.5-1.4,6.4-2.7c1.9-1.3,3.4-3,4.5-5.1c2.2-5.1,2.2-10.8,0-15.9c-1.1-2-2.6-3.8-4.5-5.1s-4.1-2.2-6.4-2.7  c-2.5-0.5-5-0.8-7.5-0.8H1339v-7.6h39.5V64.9z"></path><path class="st1" d="M1339,49.3v-19c0-2.8,0.3-5.7,0.9-8.4c0.5-2.5,1.5-5,2.9-7.1s3.2-3.8,5.4-5c5.4-2.5,11.6-2.5,17,0.1  c2.2,1.2,4,3,5.4,5.1c1.3,2.1,2.3,4.4,2.8,6.8c0.5,2.3,0.8,4.6,0.8,7v12.8h28.7v7.6L1339,49.3z M1367.1,41.7V28.9  c0.2-3.3-0.7-6.5-2.6-9.2c-1.7-2.4-4.4-3.6-8-3.6s-6.3,1.2-8,3.6c-1.8,2.7-2.7,6-2.6,9.2v12.8H1367.1z"></path><path class="st1" d="M4.9,8H73v309.3H4.9L4.9,8L4.9,8z"></path><path class="st1" d="M572.9,8h56.3l134.5,309.3h-76.9l-26.7-65.5h-120l-25.8,65.5h-75.1L572.9,8z M599.1,98l-37.6,96.1h75.6  L599.1,98z"></path><path class="st1" d="M794.8,8h114.9c15.3-0.1,30.5,1.4,45.4,4.4c14.3,2.9,26.7,7.9,37.3,15.1c10.8,7.3,19.5,17.2,25.3,28.8  c6.3,12.1,9.4,27.3,9.4,45.7c0,18.1-2.9,33.2-8.7,45.4c-5.4,11.7-13.6,21.7-24,29.3c-10.2,7.3-22.3,12.5-36.3,15.5  c-14.9,3.2-30.2,4.7-45.4,4.6h-49.8v120.6h-68.1L794.8,8L794.8,8z M862.9,139h45.4c5.9,0,11.9-0.6,17.7-1.7  c5.4-1.1,10.6-3.1,15.3-5.9c4.5-2.8,8.3-6.7,10.9-11.4c2.8-4.8,4.1-10.8,4.2-18.1c0-7.9-1.8-14.2-5.5-19s-8.5-8.7-14-11.1  c-6-2.7-12.4-4.4-19-5c-6.7-0.7-13.4-1.1-20.1-1.1h-34.9L862.9,139z"></path><path class="st1" d="M1072.6,8h210.1v62.9h-142v57.7h134.1v62.9h-134.1v62.9h149.8v62.9h-218L1072.6,8z"></path><path class="st1" d="M279.6,250.8c-48.7,0-88.3-39.5-88.3-88.2s39.5-88.3,88.2-88.3c34.5,0,65.9,20.1,80.3,51.5h78.1  C421.2,53.8,356.6,0,279.6,0C190,0.1,117.1,73,117.1,162.6S190,325.1,279.6,325.1c77,0,141.6-53.8,158.3-125.8h-78.1  C345.4,230.7,314.1,250.8,279.6,250.8z"></path><circle class="st1" cx="278.6" cy="162.6" r="40.5"></circle><path class="st1" d="M27.6,398.7H0v-7.1h63.4v7.2H35.8V470h-8.3v-71.3H27.6z"></path><path class="st1" d="M128.8,417.1c4.4,4.3,6.6,10.5,6.5,18.8v34.2h-8v-33.5c0-6.1-1.5-10.8-4.6-14s-7.4-4.8-13.1-4.8  c-6.3,0-11.4,1.9-15.1,5.7s-5.5,9-5.5,15.6V470h-8v-83.1h8v34.5c2.2-3.5,5.3-6.2,9-8c4.1-1.9,8.5-2.8,13-2.8  C118.5,410.6,124.4,412.7,128.8,417.1z"></path><path class="st1" d="M214.6,443h-49.3c0.2,5.7,2.8,11.1,7.1,14.8c4.3,3.8,9.6,5.7,16.1,5.7c3.5,0,6.9-0.7,10.1-2  c3.1-1.3,5.8-3.3,8-5.8l4.5,5.2c-2.6,3.2-6,5.6-9.8,7.2c-9.4,3.7-20,3.2-29-1.4c-4.6-2.5-8.4-6.2-10.9-10.7c-2.7-4.7-4-10-3.9-15.5  c-0.1-5.4,1.1-10.7,3.7-15.4c2.4-4.4,6-8.1,10.3-10.7c4.5-2.6,9.6-3.9,14.7-3.8c5.1-0.1,10.2,1.2,14.7,3.8  c4.3,2.5,7.9,6.2,10.3,10.6c2.5,4.8,3.8,10.1,3.7,15.5L214.6,443z M171.9,422.9c-3.9,3.7-6.2,8.8-6.6,14.2h41.8  c-0.3-5.4-2.7-10.4-6.6-14.2C192.4,415.6,180.1,415.6,171.9,422.9L171.9,422.9z"></path><path class="st1" d="M318,414.4c4.4,2.5,8.1,6.1,10.5,10.6c5.1,9.8,5.1,21.5,0,31.3c-2.4,4.4-6,8.1-10.5,10.6  c-4.6,2.6-9.8,3.8-15.1,3.8c-4.5,0.1-8.9-0.9-12.9-2.9c-3.9-2-7.1-5-9.5-8.7v32.8h-8v-80.7h7.6v11.6c2.3-3.8,5.6-6.9,9.5-9  c4.1-2.1,8.6-3.2,13.3-3.1C308.3,410.5,313.4,411.8,318,414.4z M313.7,460.6c3.4-1.9,6.1-4.7,7.9-8.1c2-3.7,2.9-7.8,2.9-12  c0.1-4.1-0.9-8.2-2.9-11.9c-1.8-3.4-4.6-6.2-7.9-8.1c-7-3.9-15.5-3.9-22.5,0c-3.3,1.9-6,4.7-7.9,8.1c-1.9,3.7-2.9,7.8-2.9,11.9  c-0.1,4.2,0.9,8.3,2.9,12c1.8,3.4,4.5,6.2,7.9,8.1C298.2,464.4,306.7,464.4,313.7,460.6z"></path><path class="st1" d="M363.5,466.7c-4.5-2.5-8.2-6.2-10.8-10.7c-5.2-9.6-5.2-21.3,0-30.9c2.5-4.5,6.3-8.2,10.8-10.7  c9.6-5.1,21.1-5.1,30.7,0c4.5,2.5,8.2,6.2,10.7,10.7c5.1,9.7,5.1,21.2,0,30.9c-2.5,4.5-6.2,8.2-10.7,10.7  C384.6,471.8,373.1,471.8,363.5,466.7z M390.1,460.6c3.3-1.9,6-4.7,7.8-8.1c3.7-7.6,3.7-16.4,0-24c-1.8-3.4-4.5-6.2-7.8-8.1  c-7-3.8-15.5-3.8-22.5,0c-3.3,1.9-6,4.7-7.8,8.1c-3.8,7.5-3.8,16.5,0,24c1.8,3.4,4.5,6.2,7.8,8.1  C374.6,464.4,383.1,464.4,390.1,460.6z"></path><path class="st1" d="M516,411.1L493.7,470h-7.5l-18.6-48.3L449,470h-7.5l-22.2-58.9h7.6l18.5,50.1l18.9-50.1h6.8l18.8,50.1  l18.7-50.1H516z"></path><path class="st1" d="M583.7,443h-49.3c0.2,5.7,2.8,11.1,7.1,14.8c4.3,3.8,9.6,5.7,16.1,5.7c3.5,0,6.9-0.7,10.1-2  c3.1-1.3,5.8-3.3,8-5.8l4.5,5.2c-2.6,3.2-6,5.6-9.8,7.2c-4.1,1.7-8.5,2.5-12.9,2.5c-5.6,0.1-11.1-1.2-16.1-3.9  c-4.6-2.5-8.4-6.2-10.9-10.7c-2.7-4.7-4-10-3.9-15.5c-0.1-5.4,1.2-10.7,3.8-15.5c2.4-4.4,5.9-8.1,10.3-10.7  c4.5-2.6,9.6-3.9,14.7-3.8c5.1-0.1,10.2,1.2,14.7,3.8c4.3,2.5,7.8,6.2,10.2,10.6c2.5,4.8,3.8,10.1,3.7,15.5L583.7,443z M541,422.9  c-3.9,3.7-6.2,8.8-6.5,14.2h41.8c-0.3-5.4-2.7-10.4-6.5-14.2C561.5,415.6,549.2,415.6,541,422.9z"></path><path class="st1" d="M622.2,413.6c3.7-2,8.3-3,13.7-3v7.7l-1.9-0.1c-6.2,0-11.1,1.9-14.6,5.7s-5.3,9.1-5.3,16v30h-8V411h7.6v11.6  C615.6,418.8,618.5,415.6,622.2,413.6z"></path><path class="st1" d="M701.6,466.7c-4.5-2.5-8.2-6.2-10.8-10.7c-5.2-9.6-5.2-21.3,0-30.9c2.5-4.5,6.2-8.2,10.8-10.7  c9.6-5.1,21.1-5.1,30.7,0c4.5,2.5,8.2,6.2,10.7,10.7c5.2,9.7,5.2,21.3,0,30.9c-2.5,4.5-6.2,8.2-10.7,10.7  C722.7,471.8,711.2,471.8,701.6,466.7z M728.2,460.6c3.3-1.9,6-4.7,7.8-8.1c3.7-7.6,3.7-16.4,0-24c-1.8-3.4-4.5-6.2-7.8-8.1  c-7-3.8-15.5-3.8-22.5,0c-3.3,1.9-6,4.7-7.8,8.1c-3.8,7.5-3.8,16.5,0,24c1.8,3.4,4.5,6.2,7.8,8.1  C712.7,464.4,721.2,464.4,728.2,460.6z"></path><path class="st1" d="M780.9,395.8c-1.8,1.9-2.6,4.6-2.6,8.3v6.9h18.2v6.7h-17.9v52.2h-8v-52.2h-10.5V411h10.5v-7.3  c0-5.4,1.5-9.6,4.6-12.8c3.1-3.1,7.5-4.7,13.2-4.7c2.2,0,4.4,0.3,6.5,1c1.9,0.5,3.7,1.5,5.3,2.7l-2.7,5.9c-2.5-2-5.6-3-8.7-2.9  C785.3,393,782.7,393.9,780.9,395.8z"></path><path class="st1" d="M894.3,414.4c4.4,2.5,8.1,6.1,10.5,10.6c5.1,9.8,5.1,21.5,0,31.3c-2.4,4.4-6.1,8.1-10.5,10.6  c-4.6,2.6-9.8,3.8-15.1,3.8c-4.5,0.1-8.9-1-12.9-3c-3.9-2-7.1-5-9.5-8.7v32.8h-8v-80.6h7.6v11.6c2.3-3.8,5.6-6.9,9.5-9  c4.1-2.1,8.7-3.2,13.3-3.1C884.5,410.5,889.6,411.8,894.3,414.4z M889.9,460.6c3.4-1.9,6.1-4.7,7.9-8.1c2-3.7,2.9-7.8,2.9-12  c0.1-4.2-0.9-8.3-2.9-11.9c-1.8-3.4-4.6-6.2-7.9-8.1c-7-3.9-15.5-3.9-22.5,0c-3.3,1.9-6,4.7-7.8,8.1c-1.9,3.7-2.9,7.8-2.8,11.9  c-0.1,4.2,0.9,8.3,2.8,12c1.8,3.4,4.5,6.2,7.8,8.1C874.4,464.4,882.9,464.4,889.9,460.6z"></path><path class="st1" d="M947,413.6c3.7-2,8.3-3,13.7-3v7.7l-1.9-0.1c-6.2,0-11.1,1.9-14.6,5.7s-5.3,9.1-5.3,16v30H931V411h7.6v11.6  C940.3,418.8,943.3,415.6,947,413.6z"></path><path class="st1" d="M1031.9,443h-49.3c0.2,5.7,2.8,11.1,7.1,14.8c4.3,3.8,9.6,5.7,16.1,5.7c3.5,0,6.9-0.7,10.1-2  c3.1-1.3,5.8-3.3,8-5.8l4.5,5.2c-2.6,3.2-6,5.6-9.8,7.2c-4.1,1.7-8.5,2.5-12.9,2.5c-5.6,0.1-11.1-1.2-16.1-3.9  c-4.6-2.5-8.4-6.2-10.9-10.7c-2.7-4.7-4-10-3.9-15.5c-0.1-5.4,1.2-10.7,3.8-15.5c2.4-4.4,5.9-8.1,10.3-10.7  c4.5-2.6,9.6-3.9,14.7-3.8c5.1-0.1,10.2,1.2,14.7,3.8c4.3,2.5,7.8,6.2,10.2,10.6c2.5,4.8,3.8,10.1,3.7,15.5L1031.9,443z   M989.2,422.9c-3.9,3.7-6.2,8.8-6.6,14.2h41.8c-0.3-5.4-2.7-10.4-6.6-14.2C1009.7,415.6,997.4,415.6,989.2,422.9L989.2,422.9z"></path><path class="st1" d="M1063.2,466.7c-4.5-2.5-8.3-6.2-10.8-10.7c-2.7-4.7-4-10.1-3.9-15.5c-0.1-5.4,1.3-10.7,3.9-15.5  c2.5-4.5,6.3-8.2,10.8-10.7c4.8-2.6,10.2-3.9,15.6-3.8c4.7-0.1,9.4,1,13.6,3c3.9,1.9,7.2,4.9,9.5,8.7l-5.9,4  c-1.8-2.8-4.4-5.1-7.4-6.5c-3-1.5-6.4-2.2-9.8-2.2c-4-0.1-8,0.9-11.5,2.9c-3.4,1.9-6.2,4.7-8,8.1c-3.8,7.5-3.8,16.5,0,24  c1.8,3.4,4.6,6.2,8,8.1c3.5,1.9,7.5,2.9,11.5,2.9c3.4,0,6.7-0.7,9.8-2.1c3-1.4,5.6-3.7,7.4-6.5l5.9,4c-2.3,3.8-5.6,6.8-9.5,8.7  c-4.2,2-8.9,3.1-13.6,3C1073.4,470.6,1068,469.3,1063.2,466.7z"></path><path class="st1" d="M1123.6,396.5c-1.1-1-1.7-2.5-1.7-4s0.6-2.9,1.7-3.9c1.1-1.1,2.6-1.7,4.1-1.7s3,0.5,4.2,1.6  c1.1,1,1.7,2.4,1.7,3.9c0,3.2-2.6,5.9-5.9,5.9C1126.1,398.2,1124.6,397.6,1123.6,396.5L1123.6,396.5z M1123.7,411.1h8V470h-8V411.1z  "></path><path class="st1" d="M1162,468.5c-3.7-1-7.2-2.8-10.2-5.2l3.6-6.3c2.8,2.1,5.9,3.7,9.3,4.8c3.8,1.2,7.7,1.9,11.7,1.8  c5.4,0,9.4-0.8,11.9-2.5c2.5-1.5,4-4.2,3.9-7.1c0.1-1.9-0.7-3.8-2.1-5.1c-1.6-1.3-3.4-2.3-5.4-2.8c-2.8-0.8-5.7-1.4-8.6-1.8  c-3.9-0.7-7.7-1.6-11.5-2.7c-2.9-0.9-5.4-2.5-7.4-4.8c-2.1-2.2-3.1-5.3-3.1-9.3c-0.1-4.8,2.2-9.3,6.2-12.1c4.1-3.1,9.8-4.7,17.1-4.7  c3.9,0,7.7,0.5,11.4,1.5c3.3,0.8,6.5,2.2,9.4,4l-3.5,6.4c-5.1-3.4-11.2-5.2-17.4-5c-5.1,0-8.9,0.9-11.5,2.7c-2.4,1.5-3.9,4.2-3.9,7  c-0.1,2,0.7,4,2.2,5.4c1.6,1.4,3.4,2.4,5.4,3c3,0.8,6,1.5,9,2c3.8,0.7,7.6,1.6,11.3,2.7c2.8,0.9,5.3,2.4,7.3,4.6c2,2.2,3,5.2,3,9  c0.1,4.9-2.3,9.6-6.4,12.3c-4.3,3-10.3,4.5-17.9,4.5C1171.1,470.7,1166.5,469.9,1162,468.5z"></path><path class="st1" d="M1220.8,396.5c-1.1-1-1.7-2.5-1.7-4s0.6-2.9,1.7-3.9c1.1-1.1,2.6-1.7,4.2-1.7c1.5,0,3,0.5,4.1,1.6  c1.1,1,1.7,2.4,1.7,3.9c0,3.2-2.6,5.9-5.9,5.9C1223.3,398.2,1221.9,397.6,1220.8,396.5L1220.8,396.5z M1220.9,411.1h8V470h-8V411.1z  "></path><path class="st1" d="M1265.9,466.7c-4.5-2.5-8.2-6.2-10.8-10.7c-5.2-9.6-5.2-21.3,0-30.9c2.5-4.5,6.3-8.2,10.8-10.7  c9.6-5.1,21.1-5.1,30.7,0c4.5,2.5,8.2,6.2,10.7,10.7c5.1,9.7,5.1,21.2,0,30.9c-2.5,4.5-6.2,8.2-10.7,10.7  C1287.1,471.8,1275.5,471.8,1265.9,466.7z M1292.5,460.6c3.3-1.9,6-4.7,7.8-8.1c3.7-7.6,3.7-16.4,0-24c-1.8-3.4-4.5-6.2-7.8-8.1  c-7-3.8-15.5-3.8-22.5,0c-3.3,1.9-6.1,4.7-7.8,8.1c-3.8,7.5-3.8,16.5,0,24c1.8,3.4,4.5,6.2,7.8,8.1  C1277,464.4,1285.5,464.4,1292.5,460.6z"></path><path class="st1" d="M1381.3,417.1c4.4,4.3,6.6,10.5,6.6,18.8v34.2h-8v-33.5c0-6.1-1.5-10.8-4.6-14s-7.4-4.8-13.1-4.8  c-6.3,0-11.4,1.9-15.1,5.7s-5.5,9-5.6,15.6V470h-8v-58.9h7.6V422c2.2-3.6,5.3-6.5,9-8.3c4.2-2.1,8.8-3.1,13.4-3  C1371,410.6,1376.9,412.7,1381.3,417.1z"></path></svg>