<svg xmlns="http://www.w3.org/2000/svg" xmlns:xlink="http://www.w3.org/1999/xlink" width="1080" zoomAndPan="magnify" viewBox="0 0 810 809.999993" height="1080" preserveAspectRatio="xMidYMid meet" version="1.0"><defs><g/><clipPath id="0edcc3d834"><path d="M 93 307.71875 L 214.65625 307.71875 L 214.65625 386.46875 L 93 386.46875 Z M 93 307.71875 " clip-rule="nonzero"/></clipPath><clipPath id="6d688d7058"><path d="M 23.40625 307.71875 L 146 307.71875 L 146 386.46875 L 23.40625 386.46875 Z M 23.40625 307.71875 " clip-rule="nonzero"/></clipPath><clipPath id="e150bcb5e4"><rect x="0" width="547" y="0" height="174"/></clipPath><clipPath id="fe3a0a8b00"><rect x="0" width="760" y="0" height="54"/></clipPath></defs><g clip-path="url(#0edcc3d834)"><path fill="#051d40" d="M 177.425781 307.757812 L 138.445312 307.757812 C 137.808594 307.757812 137.230469 308.164062 137.058594 308.738281 C 136.828125 309.316406 137 310.011719 137.519531 310.414062 C 143.351562 315.382812 147.914062 321.792969 150.6875 329.066406 L 177.484375 329.066406 C 186.433594 329.066406 193.769531 336.34375 193.769531 345.351562 L 193.769531 348.761719 C 193.769531 357.710938 186.492188 365.046875 177.484375 365.046875 L 130.589844 365.046875 C 121.636719 365.046875 114.304688 357.769531 114.304688 348.761719 L 114.304688 345.296875 C 114.304688 344.601562 114.363281 343.96875 114.421875 343.332031 C 114.652344 341.484375 113.84375 339.636719 112.285156 338.597656 C 111.011719 337.730469 109.511719 337.269531 107.894531 337.269531 L 98.132812 337.269531 C 95.59375 337.269531 93.515625 339.171875 93.226562 341.714844 C 93.109375 342.871094 93.050781 344.082031 93.050781 345.296875 L 93.050781 348.703125 C 93.050781 369.375 109.914062 386.238281 130.589844 386.238281 L 177.484375 386.238281 C 198.15625 386.238281 215.019531 369.375 215.019531 348.703125 L 215.019531 345.296875 C 214.960938 324.621094 198.097656 307.757812 177.425781 307.757812 Z M 177.425781 307.757812 " fill-opacity="1" fill-rule="nonzero"/></g><g clip-path="url(#6d688d7058)"><path fill="#be1a87" d="M 44.714844 345.296875 C 44.714844 336.34375 51.992188 329.011719 61 329.011719 L 107.894531 329.011719 C 116.84375 329.011719 124.179688 336.285156 124.179688 345.296875 L 124.179688 348.703125 C 124.179688 349.394531 124.121094 350.03125 124.0625 350.664062 C 123.832031 352.515625 124.640625 354.363281 126.199219 355.402344 C 127.472656 356.269531 128.972656 356.730469 130.589844 356.730469 L 140.347656 356.730469 C 142.890625 356.730469 144.96875 354.824219 145.199219 352.28125 C 145.316406 351.128906 145.375 349.914062 145.375 348.703125 L 145.375 345.296875 C 145.375 324.621094 128.511719 307.757812 107.835938 307.757812 L 60.945312 307.757812 C 40.269531 307.757812 23.40625 324.621094 23.40625 345.296875 L 23.40625 348.703125 C 23.40625 369.375 40.269531 386.238281 60.945312 386.238281 L 99.925781 386.238281 C 100.558594 386.238281 101.136719 385.835938 101.3125 385.257812 C 101.542969 384.679688 101.367188 383.988281 100.847656 383.582031 C 95.015625 378.617188 90.453125 372.207031 87.683594 364.929688 L 61 364.929688 C 52.050781 364.988281 44.714844 357.710938 44.714844 348.761719 Z M 44.714844 345.296875 " fill-opacity="1" fill-rule="nonzero"/></g><g transform="matrix(1, 0, 0, 1, 221, 244)"><g clip-path="url(#e150bcb5e4)"><g fill="#051d40" fill-opacity="1"><g transform="translate(0.546023, 132.159084)"><g><path d="M 40.90625 1.59375 C 34.175781 1.59375 28.242188 0.132812 23.109375 -2.78125 C 17.972656 -5.707031 13.921875 -9.78125 10.953125 -15 C 7.984375 -20.226562 6.5 -26.207031 6.5 -32.9375 C 6.5 -39.664062 7.984375 -45.640625 10.953125 -50.859375 C 13.921875 -56.085938 17.972656 -60.160156 23.109375 -63.078125 C 28.242188 -65.992188 34.175781 -67.453125 40.90625 -67.453125 C 49.3125 -67.453125 56.390625 -65.257812 62.140625 -60.875 C 67.898438 -56.5 71.578125 -50.460938 73.171875 -42.765625 L 55.25 -42.765625 C 54.363281 -45.953125 52.613281 -48.453125 50 -50.265625 C 47.382812 -52.078125 44.304688 -52.984375 40.765625 -52.984375 C 36.078125 -52.984375 32.09375 -51.210938 28.8125 -47.671875 C 25.539062 -44.128906 23.90625 -39.21875 23.90625 -32.9375 C 23.90625 -26.644531 25.539062 -21.726562 28.8125 -18.1875 C 32.09375 -14.644531 36.078125 -12.875 40.765625 -12.875 C 44.304688 -12.875 47.382812 -13.757812 50 -15.53125 C 52.613281 -17.300781 54.363281 -19.828125 55.25 -23.109375 L 73.171875 -23.109375 C 71.578125 -15.671875 67.898438 -9.691406 62.140625 -5.171875 C 56.390625 -0.660156 49.3125 1.59375 40.90625 1.59375 Z M 40.90625 1.59375 "/></g></g></g><g fill="#051d40" fill-opacity="1"><g transform="translate(80.222303, 132.159084)"><g><path d="M 40.234375 1.59375 C 33.859375 1.59375 28.125 0.132812 23.03125 -2.78125 C 17.945312 -5.707031 13.921875 -9.757812 10.953125 -14.9375 C 7.984375 -20.113281 6.5 -26.113281 6.5 -32.9375 C 6.5 -39.75 8.003906 -45.742188 11.015625 -50.921875 C 14.023438 -56.109375 18.078125 -60.160156 23.171875 -63.078125 C 28.265625 -65.992188 34 -67.453125 40.375 -67.453125 C 46.65625 -67.453125 52.34375 -65.992188 57.4375 -63.078125 C 62.53125 -60.160156 66.554688 -56.109375 69.515625 -50.921875 C 72.484375 -45.742188 73.96875 -39.75 73.96875 -32.9375 C 73.96875 -26.113281 72.484375 -20.113281 69.515625 -14.9375 C 66.554688 -9.757812 62.507812 -5.707031 57.375 -2.78125 C 52.238281 0.132812 46.523438 1.59375 40.234375 1.59375 Z M 40.234375 -13.140625 C 44.660156 -13.140625 48.507812 -14.800781 51.78125 -18.125 C 55.0625 -21.445312 56.703125 -26.382812 56.703125 -32.9375 C 56.703125 -39.488281 55.0625 -44.421875 51.78125 -47.734375 C 48.507812 -51.054688 44.707031 -52.71875 40.375 -52.71875 C 35.851562 -52.71875 31.976562 -51.054688 28.75 -47.734375 C 25.519531 -44.421875 23.90625 -39.488281 23.90625 -32.9375 C 23.90625 -26.382812 25.519531 -21.445312 28.75 -18.125 C 31.976562 -14.800781 35.804688 -13.140625 40.234375 -13.140625 Z M 40.234375 -13.140625 "/></g></g></g><g fill="#051d40" fill-opacity="1"><g transform="translate(160.695348, 132.159084)"><g><path d="M 8.625 0 L 8.625 -65.875 L 23.640625 -65.875 L 24.96875 -54.71875 C 27 -58.613281 29.941406 -61.707031 33.796875 -64 C 37.648438 -66.300781 42.1875 -67.453125 47.40625 -67.453125 C 55.550781 -67.453125 61.878906 -64.882812 66.390625 -59.75 C 70.910156 -54.625 73.171875 -47.101562 73.171875 -37.1875 L 73.171875 0 L 56.171875 0 L 56.171875 -35.59375 C 56.171875 -41.257812 55.019531 -45.597656 52.71875 -48.609375 C 50.414062 -51.617188 46.832031 -53.125 41.96875 -53.125 C 37.1875 -53.125 33.265625 -51.441406 30.203125 -48.078125 C 27.148438 -44.710938 25.625 -40.019531 25.625 -34 L 25.625 0 Z M 8.625 0 "/></g></g></g><g fill="#051d40" fill-opacity="1"><g transform="translate(241.433969, 132.159084)"><g><path d="M 40.640625 1.59375 C 33.992188 1.59375 28.101562 0.175781 22.96875 -2.65625 C 17.832031 -5.488281 13.800781 -9.472656 10.875 -14.609375 C 7.957031 -19.742188 6.5 -25.675781 6.5 -32.40625 C 6.5 -39.21875 7.9375 -45.28125 10.8125 -50.59375 C 13.695312 -55.90625 17.679688 -60.039062 22.765625 -63 C 27.859375 -65.96875 33.859375 -67.453125 40.765625 -67.453125 C 47.234375 -67.453125 52.945312 -66.035156 57.90625 -63.203125 C 62.863281 -60.378906 66.734375 -56.507812 69.515625 -51.59375 C 72.304688 -46.675781 73.703125 -41.207031 73.703125 -35.1875 C 73.703125 -34.21875 73.675781 -33.203125 73.625 -32.140625 C 73.582031 -31.078125 73.519531 -29.96875 73.4375 -28.8125 L 23.375 -28.8125 C 23.726562 -23.675781 25.519531 -19.644531 28.75 -16.71875 C 31.976562 -13.800781 35.894531 -12.34375 40.5 -12.34375 C 43.957031 -12.34375 46.859375 -13.117188 49.203125 -14.671875 C 51.546875 -16.222656 53.296875 -18.238281 54.453125 -20.71875 L 71.703125 -20.71875 C 70.460938 -16.550781 68.40625 -12.765625 65.53125 -9.359375 C 62.65625 -5.953125 59.113281 -3.273438 54.90625 -1.328125 C 50.707031 0.617188 45.953125 1.59375 40.640625 1.59375 Z M 40.765625 -53.65625 C 36.609375 -53.65625 32.9375 -52.476562 29.75 -50.125 C 26.5625 -47.78125 24.523438 -44.21875 23.640625 -39.4375 L 56.4375 -39.4375 C 56.175781 -43.78125 54.582031 -47.234375 51.65625 -49.796875 C 48.738281 -52.367188 45.109375 -53.65625 40.765625 -53.65625 Z M 40.765625 -53.65625 "/></g></g></g><g fill="#051d40" fill-opacity="1"><g transform="translate(320.844673, 132.159084)"><g><path d="M 2.390625 0 L 26.296875 -32.9375 L 2.390625 -65.875 L 20.578125 -65.875 L 37.3125 -42.5 L 53.921875 -65.875 L 72.234375 -65.875 L 48.203125 -32.9375 L 72.234375 0 L 53.921875 0 L 37.3125 -23.375 L 20.578125 0 Z M 2.390625 0 "/></g></g></g><g fill="#051d40" fill-opacity="1"><g transform="translate(395.341977, 132.159084)"><g><path d="M 33.328125 1.59375 C 25.097656 1.59375 18.742188 -0.972656 14.265625 -6.109375 C 9.796875 -11.242188 7.5625 -18.769531 7.5625 -28.6875 L 7.5625 -65.875 L 24.4375 -65.875 L 24.4375 -30.28125 C 24.4375 -24.613281 25.585938 -20.273438 27.890625 -17.265625 C 30.191406 -14.253906 33.820312 -12.75 38.78125 -12.75 C 43.46875 -12.75 47.335938 -14.429688 50.390625 -17.796875 C 53.453125 -21.160156 54.984375 -25.851562 54.984375 -31.875 L 54.984375 -65.875 L 71.96875 -65.875 L 71.96875 0 L 56.96875 0 L 55.640625 -11.15625 C 53.609375 -7.257812 50.664062 -4.160156 46.8125 -1.859375 C 42.957031 0.441406 38.460938 1.59375 33.328125 1.59375 Z M 33.328125 1.59375 "/></g></g></g><g fill="#051d40" fill-opacity="1"><g transform="translate(476.080621, 132.159084)"><g><path d="M 35.859375 1.59375 C 30.015625 1.59375 24.878906 0.644531 20.453125 -1.25 C 16.023438 -3.15625 12.484375 -5.789062 9.828125 -9.15625 C 7.171875 -12.519531 5.578125 -16.414062 5.046875 -20.84375 L 22.171875 -20.84375 C 22.703125 -18.28125 24.140625 -16.085938 26.484375 -14.265625 C 28.835938 -12.453125 31.875 -11.546875 35.59375 -11.546875 C 39.3125 -11.546875 42.03125 -12.296875 43.75 -13.796875 C 45.476562 -15.304688 46.34375 -17.035156 46.34375 -18.984375 C 46.34375 -21.816406 45.101562 -23.742188 42.625 -24.765625 C 40.144531 -25.785156 36.691406 -26.78125 32.265625 -27.75 C 29.429688 -28.375 26.550781 -29.128906 23.625 -30.015625 C 20.707031 -30.898438 18.03125 -32.023438 15.59375 -33.390625 C 13.164062 -34.765625 11.195312 -36.535156 9.6875 -38.703125 C 8.1875 -40.878906 7.4375 -43.5625 7.4375 -46.75 C 7.4375 -52.59375 9.757812 -57.503906 14.40625 -61.484375 C 19.050781 -65.460938 25.582031 -67.453125 34 -67.453125 C 41.789062 -67.453125 48.007812 -65.640625 52.65625 -62.015625 C 57.300781 -58.390625 60.066406 -53.390625 60.953125 -47.015625 L 44.890625 -47.015625 C 43.910156 -51.878906 40.234375 -54.3125 33.859375 -54.3125 C 30.671875 -54.3125 28.210938 -53.691406 26.484375 -52.453125 C 24.765625 -51.210938 23.90625 -49.664062 23.90625 -47.8125 C 23.90625 -45.863281 25.1875 -44.3125 27.75 -43.15625 C 30.320312 -42.007812 33.734375 -40.945312 37.984375 -39.96875 C 42.585938 -38.90625 46.8125 -37.734375 50.65625 -36.453125 C 54.507812 -35.171875 57.585938 -33.265625 59.890625 -30.734375 C 62.191406 -28.210938 63.34375 -24.609375 63.34375 -19.921875 C 63.4375 -15.847656 62.375 -12.171875 60.15625 -8.890625 C 57.945312 -5.617188 54.757812 -3.050781 50.59375 -1.1875 C 46.4375 0.664062 41.523438 1.59375 35.859375 1.59375 Z M 35.859375 1.59375 "/></g></g></g></g></g><g transform="matrix(1, 0, 0, 1, 22, 384)"><g clip-path="url(#fe3a0a8b00)"><g fill="#051d40" fill-opacity="1"><g transform="translate(0.690717, 41.998625)"><g><path d="M 21.125 -4.375 C 20.5625 -3.675781 19.957031 -3.023438 19.3125 -2.421875 C 18.675781 -1.828125 17.953125 -1.3125 17.140625 -0.875 C 16.335938 -0.4375 15.425781 -0.09375 14.40625 0.15625 C 13.382812 0.40625 12.222656 0.53125 10.921875 0.53125 C 9.429688 0.53125 8.132812 0.328125 7.03125 -0.078125 C 5.9375 -0.484375 5.023438 -1.070312 4.296875 -1.84375 C 3.578125 -2.625 3.039062 -3.578125 2.6875 -4.703125 C 2.34375 -5.835938 2.171875 -7.125 2.171875 -8.5625 C 2.171875 -9.34375 2.21875 -10.160156 2.3125 -11.015625 C 2.414062 -11.878906 2.5625 -12.75 2.75 -13.625 C 2.945312 -14.507812 3.191406 -15.394531 3.484375 -16.28125 C 3.773438 -17.164062 4.117188 -18.019531 4.515625 -18.84375 C 4.992188 -19.863281 5.582031 -20.816406 6.28125 -21.703125 C 6.988281 -22.597656 7.804688 -23.375 8.734375 -24.03125 C 9.660156 -24.695312 10.703125 -25.21875 11.859375 -25.59375 C 13.023438 -25.96875 14.304688 -26.15625 15.703125 -26.15625 C 16.878906 -26.15625 17.925781 -26.039062 18.84375 -25.8125 C 19.757812 -25.59375 20.5625 -25.269531 21.25 -24.84375 C 21.9375 -24.414062 22.523438 -23.894531 23.015625 -23.28125 C 23.503906 -22.675781 23.921875 -21.992188 24.265625 -21.234375 L 21.265625 -19.484375 C 21.003906 -20.085938 20.691406 -20.617188 20.328125 -21.078125 C 19.972656 -21.535156 19.550781 -21.914062 19.0625 -22.21875 C 18.582031 -22.519531 18.023438 -22.742188 17.390625 -22.890625 C 16.765625 -23.046875 16.046875 -23.125 15.234375 -23.125 C 14.359375 -23.125 13.539062 -22.984375 12.78125 -22.703125 C 12.03125 -22.421875 11.335938 -22.03125 10.703125 -21.53125 C 10.078125 -21.039062 9.515625 -20.460938 9.015625 -19.796875 C 8.523438 -19.140625 8.097656 -18.414062 7.734375 -17.625 C 7.410156 -16.945312 7.125 -16.226562 6.875 -15.46875 C 6.632812 -14.71875 6.425781 -13.953125 6.25 -13.171875 C 6.082031 -12.398438 5.953125 -11.617188 5.859375 -10.828125 C 5.765625 -10.046875 5.71875 -9.28125 5.71875 -8.53125 C 5.71875 -6.601562 6.164062 -5.113281 7.0625 -4.0625 C 7.96875 -3.019531 9.242188 -2.5 10.890625 -2.5 C 11.796875 -2.5 12.625 -2.585938 13.375 -2.765625 C 14.132812 -2.953125 14.828125 -3.21875 15.453125 -3.5625 C 16.085938 -3.914062 16.675781 -4.335938 17.21875 -4.828125 C 17.757812 -5.328125 18.273438 -5.878906 18.765625 -6.484375 Z M 21.125 -4.375 "/></g></g></g><g fill="#051d40" fill-opacity="1"><g transform="translate(24.379198, 41.998625)"><g><path d="M 1.703125 -7.015625 C 1.703125 -7.679688 1.765625 -8.425781 1.890625 -9.25 C 2.023438 -10.082031 2.234375 -10.9375 2.515625 -11.8125 C 2.796875 -12.695312 3.160156 -13.570312 3.609375 -14.4375 C 4.066406 -15.300781 4.625 -16.097656 5.28125 -16.828125 C 5.6875 -17.296875 6.128906 -17.71875 6.609375 -18.09375 C 7.097656 -18.476562 7.632812 -18.8125 8.21875 -19.09375 C 8.8125 -19.375 9.445312 -19.585938 10.125 -19.734375 C 10.800781 -19.890625 11.535156 -19.96875 12.328125 -19.96875 C 14.535156 -19.96875 16.242188 -19.34375 17.453125 -18.09375 C 18.671875 -16.851562 19.28125 -14.96875 19.28125 -12.4375 C 19.28125 -11.675781 19.207031 -10.835938 19.0625 -9.921875 C 18.925781 -9.015625 18.703125 -8.097656 18.390625 -7.171875 C 18.078125 -6.253906 17.671875 -5.351562 17.171875 -4.46875 C 16.671875 -3.582031 16.0625 -2.789062 15.34375 -2.09375 C 14.539062 -1.289062 13.601562 -0.644531 12.53125 -0.15625 C 11.46875 0.332031 10.234375 0.578125 8.828125 0.578125 C 7.535156 0.578125 6.4375 0.410156 5.53125 0.078125 C 4.625 -0.242188 3.890625 -0.722656 3.328125 -1.359375 C 2.765625 -1.992188 2.351562 -2.78125 2.09375 -3.71875 C 1.832031 -4.664062 1.703125 -5.765625 1.703125 -7.015625 Z M 4.921875 -6.828125 C 4.921875 -6.023438 4.992188 -5.332031 5.140625 -4.75 C 5.296875 -4.164062 5.535156 -3.679688 5.859375 -3.296875 C 6.179688 -2.921875 6.601562 -2.644531 7.125 -2.46875 C 7.644531 -2.289062 8.273438 -2.203125 9.015625 -2.203125 C 9.898438 -2.203125 10.695312 -2.382812 11.40625 -2.75 C 12.113281 -3.113281 12.75 -3.609375 13.3125 -4.234375 C 13.738281 -4.734375 14.125 -5.304688 14.46875 -5.953125 C 14.820312 -6.609375 15.113281 -7.300781 15.34375 -8.03125 C 15.582031 -8.757812 15.757812 -9.503906 15.875 -10.265625 C 16 -11.023438 16.0625 -11.75 16.0625 -12.4375 C 16.0625 -14.082031 15.726562 -15.289062 15.0625 -16.0625 C 14.40625 -16.832031 13.390625 -17.21875 12.015625 -17.21875 C 11.015625 -17.21875 10.125 -16.984375 9.34375 -16.515625 C 8.570312 -16.054688 7.90625 -15.457031 7.34375 -14.71875 C 6.96875 -14.207031 6.628906 -13.628906 6.328125 -12.984375 C 6.035156 -12.347656 5.78125 -11.679688 5.5625 -10.984375 C 5.351562 -10.296875 5.191406 -9.59375 5.078125 -8.875 C 4.972656 -8.164062 4.921875 -7.484375 4.921875 -6.828125 Z M 4.921875 -6.828125 "/></g></g></g><g fill="#051d40" fill-opacity="1"><g transform="translate(45.384235, 41.998625)"><g><path d="M 13 0 L 15.4375 -11.4375 C 15.582031 -12.144531 15.695312 -12.789062 15.78125 -13.375 C 15.875 -13.96875 15.921875 -14.5625 15.921875 -15.15625 C 15.921875 -15.738281 15.757812 -16.203125 15.4375 -16.546875 C 15.125 -16.890625 14.628906 -17.0625 13.953125 -17.0625 C 12.984375 -17.0625 11.90625 -16.765625 10.71875 -16.171875 C 9.53125 -15.578125 8.320312 -14.757812 7.09375 -13.71875 L 4.171875 0 L 1.015625 0 L 5.109375 -19.421875 L 8.25 -19.421875 L 7.65625 -16.53125 C 8.207031 -17.019531 8.769531 -17.476562 9.34375 -17.90625 C 9.914062 -18.332031 10.492188 -18.695312 11.078125 -19 C 11.660156 -19.300781 12.253906 -19.535156 12.859375 -19.703125 C 13.460938 -19.878906 14.066406 -19.96875 14.671875 -19.96875 C 15.503906 -19.96875 16.203125 -19.859375 16.765625 -19.640625 C 17.328125 -19.421875 17.78125 -19.113281 18.125 -18.71875 C 18.46875 -18.320312 18.710938 -17.847656 18.859375 -17.296875 C 19.015625 -16.753906 19.09375 -16.171875 19.09375 -15.546875 C 19.09375 -15.085938 19.039062 -14.515625 18.9375 -13.828125 C 18.832031 -13.140625 18.679688 -12.34375 18.484375 -11.4375 L 16.109375 0 Z M 13 0 "/></g></g></g><g fill="#051d40" fill-opacity="1"><g transform="translate(66.500312, 41.998625)"><g><path d="M 5.28125 -9.328125 C 5.15625 -8.742188 5.054688 -8.195312 4.984375 -7.6875 C 4.921875 -7.1875 4.890625 -6.707031 4.890625 -6.25 C 4.890625 -5.476562 4.972656 -4.832031 5.140625 -4.3125 C 5.304688 -3.789062 5.5625 -3.375 5.90625 -3.0625 C 6.257812 -2.75 6.703125 -2.523438 7.234375 -2.390625 C 7.773438 -2.265625 8.425781 -2.203125 9.1875 -2.203125 C 10.019531 -2.203125 10.84375 -2.414062 11.65625 -2.84375 C 12.46875 -3.28125 13.257812 -3.898438 14.03125 -4.703125 L 15.984375 -2.890625 C 15.023438 -1.785156 13.96875 -0.929688 12.8125 -0.328125 C 11.664062 0.273438 10.328125 0.578125 8.796875 0.578125 C 6.460938 0.578125 4.679688 0.015625 3.453125 -1.109375 C 2.234375 -2.234375 1.625 -3.960938 1.625 -6.296875 C 1.625 -7.046875 1.6875 -7.835938 1.8125 -8.671875 C 1.9375 -9.515625 2.117188 -10.359375 2.359375 -11.203125 C 2.609375 -12.046875 2.910156 -12.867188 3.265625 -13.671875 C 3.628906 -14.472656 4.046875 -15.222656 4.515625 -15.921875 C 5.335938 -17.160156 6.375 -18.144531 7.625 -18.875 C 8.875 -19.601562 10.414062 -19.96875 12.25 -19.96875 C 13.257812 -19.96875 14.144531 -19.820312 14.90625 -19.53125 C 15.675781 -19.238281 16.316406 -18.832031 16.828125 -18.3125 C 17.347656 -17.789062 17.734375 -17.15625 17.984375 -16.40625 C 18.242188 -15.65625 18.375 -14.828125 18.375 -13.921875 C 18.375 -13.796875 18.363281 -13.613281 18.34375 -13.375 C 18.332031 -13.144531 18.3125 -12.894531 18.28125 -12.625 C 18.257812 -12.351562 18.226562 -12.082031 18.1875 -11.8125 C 18.15625 -11.539062 18.117188 -11.304688 18.078125 -11.109375 L 17.6875 -9.328125 Z M 15.125 -11.828125 C 15.269531 -12.546875 15.34375 -13.21875 15.34375 -13.84375 C 15.34375 -14.96875 15.0625 -15.828125 14.5 -16.421875 C 13.945312 -17.023438 13.054688 -17.328125 11.828125 -17.328125 C 10.953125 -17.328125 10.175781 -17.175781 9.5 -16.875 C 8.832031 -16.582031 8.234375 -16.113281 7.703125 -15.46875 C 6.992188 -14.59375 6.367188 -13.378906 5.828125 -11.828125 Z M 15.125 -11.828125 "/></g></g></g><g fill="#051d40" fill-opacity="1"><g transform="translate(86.098846, 41.998625)"><g><path d="M 15.953125 -3 C 15.546875 -2.476562 15.09375 -2 14.59375 -1.5625 C 14.101562 -1.132812 13.554688 -0.757812 12.953125 -0.4375 C 12.347656 -0.125 11.6875 0.117188 10.96875 0.296875 C 10.257812 0.484375 9.472656 0.578125 8.609375 0.578125 C 7.367188 0.578125 6.3125 0.410156 5.4375 0.078125 C 4.5625 -0.253906 3.84375 -0.734375 3.28125 -1.359375 C 2.71875 -1.984375 2.304688 -2.734375 2.046875 -3.609375 C 1.796875 -4.492188 1.671875 -5.488281 1.671875 -6.59375 C 1.671875 -7.425781 1.753906 -8.335938 1.921875 -9.328125 C 2.085938 -10.316406 2.347656 -11.300781 2.703125 -12.28125 C 3.054688 -13.269531 3.515625 -14.226562 4.078125 -15.15625 C 4.640625 -16.082031 5.316406 -16.898438 6.109375 -17.609375 C 6.898438 -18.328125 7.8125 -18.898438 8.84375 -19.328125 C 9.875 -19.753906 11.035156 -19.96875 12.328125 -19.96875 C 13.867188 -19.96875 15.175781 -19.675781 16.25 -19.09375 C 17.320312 -18.507812 18.097656 -17.617188 18.578125 -16.421875 L 15.765625 -14.90625 C 15.460938 -15.664062 15.015625 -16.238281 14.421875 -16.625 C 13.828125 -17.019531 13.023438 -17.21875 12.015625 -17.21875 C 11.210938 -17.21875 10.476562 -17.050781 9.8125 -16.71875 C 9.144531 -16.394531 8.546875 -15.957031 8.015625 -15.40625 C 7.492188 -14.851562 7.039062 -14.21875 6.65625 -13.5 C 6.269531 -12.78125 5.945312 -12.019531 5.6875 -11.21875 C 5.425781 -10.425781 5.234375 -9.613281 5.109375 -8.78125 C 4.984375 -7.957031 4.921875 -7.175781 4.921875 -6.4375 C 4.921875 -5.8125 4.988281 -5.234375 5.125 -4.703125 C 5.257812 -4.179688 5.484375 -3.734375 5.796875 -3.359375 C 6.117188 -2.992188 6.53125 -2.707031 7.03125 -2.5 C 7.539062 -2.300781 8.164062 -2.203125 8.90625 -2.203125 C 9.40625 -2.203125 9.867188 -2.257812 10.296875 -2.375 C 10.734375 -2.488281 11.148438 -2.65625 11.546875 -2.875 C 11.941406 -3.09375 12.320312 -3.363281 12.6875 -3.6875 C 13.050781 -4.007812 13.421875 -4.375 13.796875 -4.78125 Z M 15.953125 -3 "/></g></g></g><g fill="#051d40" fill-opacity="1"><g transform="translate(104.790538, 41.998625)"><g><path d="M 10.421875 0 C 9.847656 0.175781 9.257812 0.316406 8.65625 0.421875 C 8.050781 0.523438 7.492188 0.578125 6.984375 0.578125 C 6.179688 0.578125 5.5 0.476562 4.9375 0.28125 C 4.375 0.0820312 3.910156 -0.191406 3.546875 -0.546875 C 3.179688 -0.898438 2.914062 -1.316406 2.75 -1.796875 C 2.582031 -2.285156 2.5 -2.820312 2.5 -3.40625 C 2.5 -3.820312 2.523438 -4.28125 2.578125 -4.78125 C 2.640625 -5.289062 2.726562 -5.796875 2.84375 -6.296875 L 5.078125 -16.75 L 2.390625 -16.75 L 2.921875 -19.421875 L 5.609375 -19.421875 L 6.796875 -24.828125 L 9.90625 -24.828125 L 8.71875 -19.421875 L 13.5625 -19.421875 L 13.046875 -16.75 L 8.1875 -16.75 L 6 -6.484375 C 5.875 -5.960938 5.773438 -5.488281 5.703125 -5.0625 C 5.640625 -4.632812 5.609375 -4.257812 5.609375 -3.9375 C 5.609375 -3.289062 5.757812 -2.820312 6.0625 -2.53125 C 6.375 -2.238281 6.882812 -2.09375 7.59375 -2.09375 C 7.8125 -2.09375 8.039062 -2.101562 8.28125 -2.125 C 8.53125 -2.15625 8.78125 -2.191406 9.03125 -2.234375 C 9.289062 -2.285156 9.539062 -2.34375 9.78125 -2.40625 C 10.019531 -2.46875 10.234375 -2.535156 10.421875 -2.609375 Z M 10.421875 0 "/></g></g></g><g fill="#051d40" fill-opacity="1"><g transform="translate(118.022792, 41.998625)"><g><path d="M 1.703125 -6.328125 C 1.703125 -7.191406 1.785156 -8.125 1.953125 -9.125 C 2.117188 -10.132812 2.367188 -11.144531 2.703125 -12.15625 C 3.046875 -13.164062 3.484375 -14.140625 4.015625 -15.078125 C 4.554688 -16.015625 5.191406 -16.847656 5.921875 -17.578125 C 6.660156 -18.304688 7.503906 -18.882812 8.453125 -19.3125 C 9.410156 -19.75 10.472656 -19.96875 11.640625 -19.96875 C 12.828125 -19.96875 13.828125 -19.78125 14.640625 -19.40625 C 15.460938 -19.03125 16.175781 -18.503906 16.78125 -17.828125 L 17.140625 -19.421875 L 20.28125 -19.421875 L 16.171875 0 L 13.046875 0 L 13.53125 -2.3125 C 13.070312 -1.914062 12.609375 -1.546875 12.140625 -1.203125 C 11.671875 -0.859375 11.1875 -0.550781 10.6875 -0.28125 C 10.1875 -0.0195312 9.660156 0.1875 9.109375 0.34375 C 8.566406 0.5 7.992188 0.578125 7.390625 0.578125 C 6.359375 0.578125 5.484375 0.425781 4.765625 0.125 C 4.046875 -0.175781 3.457031 -0.617188 3 -1.203125 C 2.550781 -1.796875 2.222656 -2.519531 2.015625 -3.375 C 1.804688 -4.238281 1.703125 -5.222656 1.703125 -6.328125 Z M 16.234375 -15.046875 C 15.617188 -15.710938 14.953125 -16.226562 14.234375 -16.59375 C 13.515625 -16.957031 12.625 -17.140625 11.5625 -17.140625 C 10.800781 -17.140625 10.109375 -16.972656 9.484375 -16.640625 C 8.859375 -16.304688 8.300781 -15.851562 7.8125 -15.28125 C 7.320312 -14.71875 6.894531 -14.066406 6.53125 -13.328125 C 6.164062 -12.585938 5.863281 -11.816406 5.625 -11.015625 C 5.394531 -10.210938 5.21875 -9.398438 5.09375 -8.578125 C 4.976562 -7.753906 4.921875 -6.976562 4.921875 -6.25 C 4.921875 -4.820312 5.171875 -3.800781 5.671875 -3.1875 C 6.171875 -2.582031 6.957031 -2.28125 8.03125 -2.28125 C 8.582031 -2.28125 9.128906 -2.351562 9.671875 -2.5 C 10.222656 -2.65625 10.753906 -2.863281 11.265625 -3.125 C 11.785156 -3.394531 12.285156 -3.703125 12.765625 -4.046875 C 13.253906 -4.398438 13.710938 -4.769531 14.140625 -5.15625 Z M 16.234375 -15.046875 "/></g></g></g><g fill="#051d40" fill-opacity="1"><g transform="translate(139.323935, 41.998625)"><g><path d="M 13 0 L 15.4375 -11.4375 C 15.582031 -12.144531 15.695312 -12.789062 15.78125 -13.375 C 15.875 -13.96875 15.921875 -14.5625 15.921875 -15.15625 C 15.921875 -15.738281 15.757812 -16.203125 15.4375 -16.546875 C 15.125 -16.890625 14.628906 -17.0625 13.953125 -17.0625 C 12.984375 -17.0625 11.90625 -16.765625 10.71875 -16.171875 C 9.53125 -15.578125 8.320312 -14.757812 7.09375 -13.71875 L 4.171875 0 L 1.015625 0 L 5.109375 -19.421875 L 8.25 -19.421875 L 7.65625 -16.53125 C 8.207031 -17.019531 8.769531 -17.476562 9.34375 -17.90625 C 9.914062 -18.332031 10.492188 -18.695312 11.078125 -19 C 11.660156 -19.300781 12.253906 -19.535156 12.859375 -19.703125 C 13.460938 -19.878906 14.066406 -19.96875 14.671875 -19.96875 C 15.503906 -19.96875 16.203125 -19.859375 16.765625 -19.640625 C 17.328125 -19.421875 17.78125 -19.113281 18.125 -18.71875 C 18.46875 -18.320312 18.710938 -17.847656 18.859375 -17.296875 C 19.015625 -16.753906 19.09375 -16.171875 19.09375 -15.546875 C 19.09375 -15.085938 19.039062 -14.515625 18.9375 -13.828125 C 18.832031 -13.140625 18.679688 -12.34375 18.484375 -11.4375 L 16.109375 0 Z M 13 0 "/></g></g></g><g fill="#051d40" fill-opacity="1"><g transform="translate(160.440012, 41.998625)"><g><path d="M 1.625 -6.328125 C 1.625 -7.054688 1.691406 -7.851562 1.828125 -8.71875 C 1.960938 -9.59375 2.164062 -10.476562 2.4375 -11.375 C 2.707031 -12.28125 3.050781 -13.171875 3.46875 -14.046875 C 3.882812 -14.921875 4.367188 -15.734375 4.921875 -16.484375 C 5.773438 -17.609375 6.785156 -18.46875 7.953125 -19.0625 C 9.128906 -19.664062 10.46875 -19.96875 11.96875 -19.96875 C 12.988281 -19.96875 13.894531 -19.78125 14.6875 -19.40625 C 15.476562 -19.03125 16.175781 -18.503906 16.78125 -17.828125 L 18.84375 -27.5625 L 21.984375 -27.5625 L 16.171875 0 L 13.046875 0 L 13.421875 -1.921875 C 12.984375 -1.578125 12.539062 -1.253906 12.09375 -0.953125 C 11.644531 -0.648438 11.171875 -0.382812 10.671875 -0.15625 C 10.171875 0.0703125 9.648438 0.25 9.109375 0.375 C 8.566406 0.507812 7.992188 0.578125 7.390625 0.578125 C 6.359375 0.578125 5.476562 0.425781 4.75 0.125 C 4.03125 -0.175781 3.4375 -0.617188 2.96875 -1.203125 C 2.507812 -1.796875 2.171875 -2.519531 1.953125 -3.375 C 1.734375 -4.238281 1.625 -5.222656 1.625 -6.328125 Z M 7.3125 -14.4375 C 6.925781 -13.882812 6.585938 -13.273438 6.296875 -12.609375 C 6.015625 -11.953125 5.773438 -11.269531 5.578125 -10.5625 C 5.378906 -9.863281 5.222656 -9.148438 5.109375 -8.421875 C 5.003906 -7.691406 4.953125 -6.96875 4.953125 -6.25 C 4.953125 -4.820312 5.195312 -3.800781 5.6875 -3.1875 C 6.175781 -2.582031 6.957031 -2.28125 8.03125 -2.28125 C 8.582031 -2.28125 9.132812 -2.347656 9.6875 -2.484375 C 10.238281 -2.617188 10.765625 -2.800781 11.265625 -3.03125 C 11.773438 -3.269531 12.265625 -3.539062 12.734375 -3.84375 C 13.203125 -4.144531 13.632812 -4.457031 14.03125 -4.78125 L 16.234375 -15.046875 C 15.617188 -15.710938 14.960938 -16.226562 14.265625 -16.59375 C 13.566406 -16.957031 12.742188 -17.140625 11.796875 -17.140625 C 10.941406 -17.140625 10.132812 -16.921875 9.375 -16.484375 C 8.613281 -16.046875 7.925781 -15.363281 7.3125 -14.4375 Z M 7.3125 -14.4375 "/></g></g></g><g fill="#051d40" fill-opacity="1"><g transform="translate(181.741155, 41.998625)"><g><path d="M 1.703125 -7.015625 C 1.703125 -7.679688 1.765625 -8.425781 1.890625 -9.25 C 2.023438 -10.082031 2.234375 -10.9375 2.515625 -11.8125 C 2.796875 -12.695312 3.160156 -13.570312 3.609375 -14.4375 C 4.066406 -15.300781 4.625 -16.097656 5.28125 -16.828125 C 5.6875 -17.296875 6.128906 -17.71875 6.609375 -18.09375 C 7.097656 -18.476562 7.632812 -18.8125 8.21875 -19.09375 C 8.8125 -19.375 9.445312 -19.585938 10.125 -19.734375 C 10.800781 -19.890625 11.535156 -19.96875 12.328125 -19.96875 C 14.535156 -19.96875 16.242188 -19.34375 17.453125 -18.09375 C 18.671875 -16.851562 19.28125 -14.96875 19.28125 -12.4375 C 19.28125 -11.675781 19.207031 -10.835938 19.0625 -9.921875 C 18.925781 -9.015625 18.703125 -8.097656 18.390625 -7.171875 C 18.078125 -6.253906 17.671875 -5.351562 17.171875 -4.46875 C 16.671875 -3.582031 16.0625 -2.789062 15.34375 -2.09375 C 14.539062 -1.289062 13.601562 -0.644531 12.53125 -0.15625 C 11.46875 0.332031 10.234375 0.578125 8.828125 0.578125 C 7.535156 0.578125 6.4375 0.410156 5.53125 0.078125 C 4.625 -0.242188 3.890625 -0.722656 3.328125 -1.359375 C 2.765625 -1.992188 2.351562 -2.78125 2.09375 -3.71875 C 1.832031 -4.664062 1.703125 -5.765625 1.703125 -7.015625 Z M 4.921875 -6.828125 C 4.921875 -6.023438 4.992188 -5.332031 5.140625 -4.75 C 5.296875 -4.164062 5.535156 -3.679688 5.859375 -3.296875 C 6.179688 -2.921875 6.601562 -2.644531 7.125 -2.46875 C 7.644531 -2.289062 8.273438 -2.203125 9.015625 -2.203125 C 9.898438 -2.203125 10.695312 -2.382812 11.40625 -2.75 C 12.113281 -3.113281 12.75 -3.609375 13.3125 -4.234375 C 13.738281 -4.734375 14.125 -5.304688 14.46875 -5.953125 C 14.820312 -6.609375 15.113281 -7.300781 15.34375 -8.03125 C 15.582031 -8.757812 15.757812 -9.503906 15.875 -10.265625 C 16 -11.023438 16.0625 -11.75 16.0625 -12.4375 C 16.0625 -14.082031 15.726562 -15.289062 15.0625 -16.0625 C 14.40625 -16.832031 13.390625 -17.21875 12.015625 -17.21875 C 11.015625 -17.21875 10.125 -16.984375 9.34375 -16.515625 C 8.570312 -16.054688 7.90625 -15.457031 7.34375 -14.71875 C 6.96875 -14.207031 6.628906 -13.628906 6.328125 -12.984375 C 6.035156 -12.347656 5.78125 -11.679688 5.5625 -10.984375 C 5.351562 -10.296875 5.191406 -9.59375 5.078125 -8.875 C 4.972656 -8.164062 4.921875 -7.484375 4.921875 -6.828125 Z M 4.921875 -6.828125 "/></g></g></g><g fill="#051d40" fill-opacity="1"><g transform="translate(212.795306, 41.998625)"><g><path d="M 5.28125 -9.328125 C 5.15625 -8.742188 5.054688 -8.195312 4.984375 -7.6875 C 4.921875 -7.1875 4.890625 -6.707031 4.890625 -6.25 C 4.890625 -5.476562 4.972656 -4.832031 5.140625 -4.3125 C 5.304688 -3.789062 5.5625 -3.375 5.90625 -3.0625 C 6.257812 -2.75 6.703125 -2.523438 7.234375 -2.390625 C 7.773438 -2.265625 8.425781 -2.203125 9.1875 -2.203125 C 10.019531 -2.203125 10.84375 -2.414062 11.65625 -2.84375 C 12.46875 -3.28125 13.257812 -3.898438 14.03125 -4.703125 L 15.984375 -2.890625 C 15.023438 -1.785156 13.96875 -0.929688 12.8125 -0.328125 C 11.664062 0.273438 10.328125 0.578125 8.796875 0.578125 C 6.460938 0.578125 4.679688 0.015625 3.453125 -1.109375 C 2.234375 -2.234375 1.625 -3.960938 1.625 -6.296875 C 1.625 -7.046875 1.6875 -7.835938 1.8125 -8.671875 C 1.9375 -9.515625 2.117188 -10.359375 2.359375 -11.203125 C 2.609375 -12.046875 2.910156 -12.867188 3.265625 -13.671875 C 3.628906 -14.472656 4.046875 -15.222656 4.515625 -15.921875 C 5.335938 -17.160156 6.375 -18.144531 7.625 -18.875 C 8.875 -19.601562 10.414062 -19.96875 12.25 -19.96875 C 13.257812 -19.96875 14.144531 -19.820312 14.90625 -19.53125 C 15.675781 -19.238281 16.316406 -18.832031 16.828125 -18.3125 C 17.347656 -17.789062 17.734375 -17.15625 17.984375 -16.40625 C 18.242188 -15.65625 18.375 -14.828125 18.375 -13.921875 C 18.375 -13.796875 18.363281 -13.613281 18.34375 -13.375 C 18.332031 -13.144531 18.3125 -12.894531 18.28125 -12.625 C 18.257812 -12.351562 18.226562 -12.082031 18.1875 -11.8125 C 18.15625 -11.539062 18.117188 -11.304688 18.078125 -11.109375 L 17.6875 -9.328125 Z M 15.125 -11.828125 C 15.269531 -12.546875 15.34375 -13.21875 15.34375 -13.84375 C 15.34375 -14.96875 15.0625 -15.828125 14.5 -16.421875 C 13.945312 -17.023438 13.054688 -17.328125 11.828125 -17.328125 C 10.953125 -17.328125 10.175781 -17.175781 9.5 -16.875 C 8.832031 -16.582031 8.234375 -16.113281 7.703125 -15.46875 C 6.992188 -14.59375 6.367188 -13.378906 5.828125 -11.828125 Z M 15.125 -11.828125 "/></g></g></g><g fill="#051d40" fill-opacity="1"><g transform="translate(232.39384, 41.998625)"><g><path d="M 22.96875 0 L 25.390625 -11.4375 C 25.566406 -12.25 25.707031 -12.953125 25.8125 -13.546875 C 25.914062 -14.140625 25.96875 -14.648438 25.96875 -15.078125 C 25.96875 -15.734375 25.828125 -16.226562 25.546875 -16.5625 C 25.273438 -16.894531 24.835938 -17.0625 24.234375 -17.0625 C 23.722656 -17.0625 23.203125 -16.957031 22.671875 -16.75 C 22.140625 -16.550781 21.609375 -16.289062 21.078125 -15.96875 C 20.546875 -15.644531 20.019531 -15.28125 19.5 -14.875 C 18.988281 -14.476562 18.503906 -14.09375 18.046875 -13.71875 L 15.125 0 L 11.96875 0 L 14.40625 -11.4375 C 14.570312 -12.257812 14.707031 -12.972656 14.8125 -13.578125 C 14.914062 -14.191406 14.96875 -14.707031 14.96875 -15.125 C 14.96875 -15.789062 14.816406 -16.28125 14.515625 -16.59375 C 14.222656 -16.90625 13.757812 -17.0625 13.125 -17.0625 C 12.65625 -17.0625 12.15625 -16.953125 11.625 -16.734375 C 11.101562 -16.523438 10.578125 -16.253906 10.046875 -15.921875 C 9.515625 -15.597656 8.992188 -15.238281 8.484375 -14.84375 C 7.972656 -14.445312 7.507812 -14.070312 7.09375 -13.71875 L 4.171875 0 L 1.015625 0 L 5.109375 -19.421875 L 8.25 -19.421875 L 7.65625 -16.53125 C 8.15625 -17.019531 8.675781 -17.476562 9.21875 -17.90625 C 9.769531 -18.332031 10.316406 -18.695312 10.859375 -19 C 11.398438 -19.300781 11.929688 -19.535156 12.453125 -19.703125 C 12.984375 -19.878906 13.472656 -19.96875 13.921875 -19.96875 C 14.710938 -19.96875 15.378906 -19.875 15.921875 -19.6875 C 16.472656 -19.507812 16.914062 -19.253906 17.25 -18.921875 C 17.582031 -18.585938 17.820312 -18.1875 17.96875 -17.71875 C 18.113281 -17.25 18.1875 -16.734375 18.1875 -16.171875 C 19.414062 -17.359375 20.597656 -18.285156 21.734375 -18.953125 C 22.878906 -19.628906 23.953125 -19.96875 24.953125 -19.96875 C 25.773438 -19.96875 26.457031 -19.859375 27 -19.640625 C 27.539062 -19.429688 27.972656 -19.132812 28.296875 -18.75 C 28.617188 -18.375 28.84375 -17.929688 28.96875 -17.421875 C 29.09375 -16.921875 29.15625 -16.382812 29.15625 -15.8125 C 29.15625 -14.875 29.007812 -13.785156 28.71875 -12.546875 L 26.078125 0 Z M 22.96875 0 "/></g></g></g><g fill="#051d40" fill-opacity="1"><g transform="translate(263.429468, 41.998625)"><g><path d="M 2.609375 7.3125 L -0.53125 7.3125 L 5.109375 -19.421875 L 8.25 -19.421875 L 7.890625 -17.46875 C 8.304688 -17.8125 8.742188 -18.140625 9.203125 -18.453125 C 9.660156 -18.765625 10.140625 -19.03125 10.640625 -19.25 C 11.140625 -19.46875 11.660156 -19.640625 12.203125 -19.765625 C 12.742188 -19.898438 13.316406 -19.96875 13.921875 -19.96875 C 14.941406 -19.96875 15.816406 -19.816406 16.546875 -19.515625 C 17.273438 -19.210938 17.867188 -18.769531 18.328125 -18.1875 C 18.796875 -17.601562 19.132812 -16.882812 19.34375 -16.03125 C 19.5625 -15.175781 19.671875 -14.191406 19.671875 -13.078125 C 19.671875 -12.242188 19.585938 -11.320312 19.421875 -10.3125 C 19.265625 -9.3125 19.015625 -8.304688 18.671875 -7.296875 C 18.328125 -6.285156 17.882812 -5.304688 17.34375 -4.359375 C 16.8125 -3.410156 16.171875 -2.566406 15.421875 -1.828125 C 14.679688 -1.097656 13.828125 -0.515625 12.859375 -0.078125 C 11.890625 0.359375 10.800781 0.578125 9.59375 0.578125 C 8.4375 0.578125 7.453125 0.382812 6.640625 0 C 5.828125 -0.375 5.117188 -0.90625 4.515625 -1.59375 Z M 5.078125 -4.375 C 5.691406 -3.707031 6.347656 -3.191406 7.046875 -2.828125 C 7.742188 -2.460938 8.566406 -2.28125 9.515625 -2.28125 C 10.265625 -2.28125 10.957031 -2.445312 11.59375 -2.78125 C 12.226562 -3.125 12.796875 -3.578125 13.296875 -4.140625 C 13.804688 -4.710938 14.25 -5.367188 14.625 -6.109375 C 15.007812 -6.847656 15.328125 -7.617188 15.578125 -8.421875 C 15.835938 -9.234375 16.03125 -10.046875 16.15625 -10.859375 C 16.28125 -11.679688 16.34375 -12.445312 16.34375 -13.15625 C 16.34375 -14.570312 16.09375 -15.585938 15.59375 -16.203125 C 15.101562 -16.828125 14.328125 -17.140625 13.265625 -17.140625 C 12.710938 -17.140625 12.160156 -17.066406 11.609375 -16.921875 C 11.066406 -16.785156 10.539062 -16.601562 10.03125 -16.375 C 9.519531 -16.144531 9.03125 -15.878906 8.5625 -15.578125 C 8.09375 -15.273438 7.664062 -14.960938 7.28125 -14.640625 Z M 5.078125 -4.375 "/></g></g></g><g fill="#051d40" fill-opacity="1"><g transform="translate(284.730611, 41.998625)"><g><path d="M 14.78125 -16.234375 C 14.625 -16.304688 14.410156 -16.363281 14.140625 -16.40625 C 13.878906 -16.457031 13.625 -16.484375 13.375 -16.484375 C 12.738281 -16.484375 12.132812 -16.394531 11.5625 -16.21875 C 10.988281 -16.039062 10.4375 -15.804688 9.90625 -15.515625 C 9.382812 -15.222656 8.882812 -14.894531 8.40625 -14.53125 C 7.9375 -14.175781 7.472656 -13.804688 7.015625 -13.421875 L 4.171875 0 L 1.015625 0 L 5.109375 -19.421875 L 8.25 -19.421875 L 7.625 -16.265625 C 8.25 -16.859375 8.835938 -17.367188 9.390625 -17.796875 C 9.941406 -18.234375 10.46875 -18.59375 10.96875 -18.875 C 11.46875 -19.164062 11.953125 -19.378906 12.421875 -19.515625 C 12.890625 -19.648438 13.363281 -19.71875 13.84375 -19.71875 C 14.789062 -19.71875 15.53125 -19.570312 16.0625 -19.28125 Z M 14.78125 -16.234375 "/></g></g></g><g fill="#051d40" fill-opacity="1"><g transform="translate(299.443395, 41.998625)"><g><path d="M 5.28125 -9.328125 C 5.15625 -8.742188 5.054688 -8.195312 4.984375 -7.6875 C 4.921875 -7.1875 4.890625 -6.707031 4.890625 -6.25 C 4.890625 -5.476562 4.972656 -4.832031 5.140625 -4.3125 C 5.304688 -3.789062 5.5625 -3.375 5.90625 -3.0625 C 6.257812 -2.75 6.703125 -2.523438 7.234375 -2.390625 C 7.773438 -2.265625 8.425781 -2.203125 9.1875 -2.203125 C 10.019531 -2.203125 10.84375 -2.414062 11.65625 -2.84375 C 12.46875 -3.28125 13.257812 -3.898438 14.03125 -4.703125 L 15.984375 -2.890625 C 15.023438 -1.785156 13.96875 -0.929688 12.8125 -0.328125 C 11.664062 0.273438 10.328125 0.578125 8.796875 0.578125 C 6.460938 0.578125 4.679688 0.015625 3.453125 -1.109375 C 2.234375 -2.234375 1.625 -3.960938 1.625 -6.296875 C 1.625 -7.046875 1.6875 -7.835938 1.8125 -8.671875 C 1.9375 -9.515625 2.117188 -10.359375 2.359375 -11.203125 C 2.609375 -12.046875 2.910156 -12.867188 3.265625 -13.671875 C 3.628906 -14.472656 4.046875 -15.222656 4.515625 -15.921875 C 5.335938 -17.160156 6.375 -18.144531 7.625 -18.875 C 8.875 -19.601562 10.414062 -19.96875 12.25 -19.96875 C 13.257812 -19.96875 14.144531 -19.820312 14.90625 -19.53125 C 15.675781 -19.238281 16.316406 -18.832031 16.828125 -18.3125 C 17.347656 -17.789062 17.734375 -17.15625 17.984375 -16.40625 C 18.242188 -15.65625 18.375 -14.828125 18.375 -13.921875 C 18.375 -13.796875 18.363281 -13.613281 18.34375 -13.375 C 18.332031 -13.144531 18.3125 -12.894531 18.28125 -12.625 C 18.257812 -12.351562 18.226562 -12.082031 18.1875 -11.8125 C 18.15625 -11.539062 18.117188 -11.304688 18.078125 -11.109375 L 17.6875 -9.328125 Z M 15.125 -11.828125 C 15.269531 -12.546875 15.34375 -13.21875 15.34375 -13.84375 C 15.34375 -14.96875 15.0625 -15.828125 14.5 -16.421875 C 13.945312 -17.023438 13.054688 -17.328125 11.828125 -17.328125 C 10.953125 -17.328125 10.175781 -17.175781 9.5 -16.875 C 8.832031 -16.582031 8.234375 -16.113281 7.703125 -15.46875 C 6.992188 -14.59375 6.367188 -13.378906 5.828125 -11.828125 Z M 15.125 -11.828125 "/></g></g></g><g fill="#051d40" fill-opacity="1"><g transform="translate(319.041929, 41.998625)"><g><path d="M 3.109375 -4.40625 C 3.429688 -3.695312 3.910156 -3.140625 4.546875 -2.734375 C 5.191406 -2.328125 6.101562 -2.125 7.28125 -2.125 C 7.820312 -2.125 8.378906 -2.175781 8.953125 -2.28125 C 9.523438 -2.382812 10.046875 -2.5625 10.515625 -2.8125 C 10.984375 -3.0625 11.367188 -3.382812 11.671875 -3.78125 C 11.972656 -4.1875 12.125 -4.6875 12.125 -5.28125 C 12.125 -5.570312 12.085938 -5.847656 12.015625 -6.109375 C 11.941406 -6.367188 11.773438 -6.625 11.515625 -6.875 C 11.253906 -7.125 10.867188 -7.375 10.359375 -7.625 C 9.859375 -7.882812 9.175781 -8.160156 8.3125 -8.453125 C 7.289062 -8.785156 6.445312 -9.128906 5.78125 -9.484375 C 5.113281 -9.835938 4.582031 -10.21875 4.1875 -10.625 C 3.789062 -11.03125 3.507812 -11.476562 3.34375 -11.96875 C 3.1875 -12.457031 3.109375 -13.015625 3.109375 -13.640625 C 3.109375 -14.515625 3.273438 -15.332031 3.609375 -16.09375 C 3.953125 -16.863281 4.445312 -17.535156 5.09375 -18.109375 C 5.75 -18.679688 6.546875 -19.132812 7.484375 -19.46875 C 8.421875 -19.800781 9.492188 -19.96875 10.703125 -19.96875 C 11.628906 -19.96875 12.4375 -19.878906 13.125 -19.703125 C 13.820312 -19.535156 14.425781 -19.300781 14.9375 -19 C 15.457031 -18.695312 15.890625 -18.335938 16.234375 -17.921875 C 16.585938 -17.515625 16.890625 -17.0625 17.140625 -16.5625 L 14.46875 -15.015625 C 14.375 -15.234375 14.238281 -15.472656 14.0625 -15.734375 C 13.882812 -16.003906 13.632812 -16.253906 13.3125 -16.484375 C 12.988281 -16.710938 12.585938 -16.898438 12.109375 -17.046875 C 11.640625 -17.203125 11.066406 -17.28125 10.390625 -17.28125 C 9.753906 -17.28125 9.179688 -17.203125 8.671875 -17.046875 C 8.160156 -16.890625 7.722656 -16.671875 7.359375 -16.390625 C 6.992188 -16.109375 6.710938 -15.773438 6.515625 -15.390625 C 6.316406 -15.015625 6.21875 -14.609375 6.21875 -14.171875 C 6.21875 -13.890625 6.257812 -13.613281 6.34375 -13.34375 C 6.4375 -13.070312 6.597656 -12.804688 6.828125 -12.546875 C 7.066406 -12.296875 7.390625 -12.054688 7.796875 -11.828125 C 8.203125 -11.609375 8.722656 -11.40625 9.359375 -11.21875 C 10.492188 -10.875 11.441406 -10.523438 12.203125 -10.171875 C 12.972656 -9.816406 13.585938 -9.421875 14.046875 -8.984375 C 14.503906 -8.554688 14.828125 -8.066406 15.015625 -7.515625 C 15.210938 -6.972656 15.3125 -6.335938 15.3125 -5.609375 C 15.3125 -4.753906 15.128906 -3.953125 14.765625 -3.203125 C 14.410156 -2.453125 13.882812 -1.796875 13.1875 -1.234375 C 12.5 -0.679688 11.640625 -0.242188 10.609375 0.078125 C 9.578125 0.410156 8.390625 0.578125 7.046875 0.578125 C 5.972656 0.578125 5.046875 0.476562 4.265625 0.28125 C 3.492188 0.0820312 2.835938 -0.175781 2.296875 -0.5 C 1.765625 -0.832031 1.34375 -1.207031 1.03125 -1.625 C 0.726562 -2.050781 0.507812 -2.484375 0.375 -2.921875 Z M 3.109375 -4.40625 "/></g></g></g><g fill="#051d40" fill-opacity="1"><g transform="translate(337.011879, 41.998625)"><g><path d="M 1.703125 -6.328125 C 1.703125 -7.191406 1.785156 -8.125 1.953125 -9.125 C 2.117188 -10.132812 2.367188 -11.144531 2.703125 -12.15625 C 3.046875 -13.164062 3.484375 -14.140625 4.015625 -15.078125 C 4.554688 -16.015625 5.191406 -16.847656 5.921875 -17.578125 C 6.660156 -18.304688 7.503906 -18.882812 8.453125 -19.3125 C 9.410156 -19.75 10.472656 -19.96875 11.640625 -19.96875 C 12.828125 -19.96875 13.828125 -19.78125 14.640625 -19.40625 C 15.460938 -19.03125 16.175781 -18.503906 16.78125 -17.828125 L 17.140625 -19.421875 L 20.28125 -19.421875 L 16.171875 0 L 13.046875 0 L 13.53125 -2.3125 C 13.070312 -1.914062 12.609375 -1.546875 12.140625 -1.203125 C 11.671875 -0.859375 11.1875 -0.550781 10.6875 -0.28125 C 10.1875 -0.0195312 9.660156 0.1875 9.109375 0.34375 C 8.566406 0.5 7.992188 0.578125 7.390625 0.578125 C 6.359375 0.578125 5.484375 0.425781 4.765625 0.125 C 4.046875 -0.175781 3.457031 -0.617188 3 -1.203125 C 2.550781 -1.796875 2.222656 -2.519531 2.015625 -3.375 C 1.804688 -4.238281 1.703125 -5.222656 1.703125 -6.328125 Z M 16.234375 -15.046875 C 15.617188 -15.710938 14.953125 -16.226562 14.234375 -16.59375 C 13.515625 -16.957031 12.625 -17.140625 11.5625 -17.140625 C 10.800781 -17.140625 10.109375 -16.972656 9.484375 -16.640625 C 8.859375 -16.304688 8.300781 -15.851562 7.8125 -15.28125 C 7.320312 -14.71875 6.894531 -14.066406 6.53125 -13.328125 C 6.164062 -12.585938 5.863281 -11.816406 5.625 -11.015625 C 5.394531 -10.210938 5.21875 -9.398438 5.09375 -8.578125 C 4.976562 -7.753906 4.921875 -6.976562 4.921875 -6.25 C 4.921875 -4.820312 5.171875 -3.800781 5.671875 -3.1875 C 6.171875 -2.582031 6.957031 -2.28125 8.03125 -2.28125 C 8.582031 -2.28125 9.128906 -2.351562 9.671875 -2.5 C 10.222656 -2.65625 10.753906 -2.863281 11.265625 -3.125 C 11.785156 -3.394531 12.285156 -3.703125 12.765625 -4.046875 C 13.253906 -4.398438 13.710938 -4.769531 14.140625 -5.15625 Z M 16.234375 -15.046875 "/></g></g></g><g fill="#051d40" fill-opacity="1"><g transform="translate(358.313022, 41.998625)"><g><path d="M 3.109375 -4.40625 C 3.429688 -3.695312 3.910156 -3.140625 4.546875 -2.734375 C 5.191406 -2.328125 6.101562 -2.125 7.28125 -2.125 C 7.820312 -2.125 8.378906 -2.175781 8.953125 -2.28125 C 9.523438 -2.382812 10.046875 -2.5625 10.515625 -2.8125 C 10.984375 -3.0625 11.367188 -3.382812 11.671875 -3.78125 C 11.972656 -4.1875 12.125 -4.6875 12.125 -5.28125 C 12.125 -5.570312 12.085938 -5.847656 12.015625 -6.109375 C 11.941406 -6.367188 11.773438 -6.625 11.515625 -6.875 C 11.253906 -7.125 10.867188 -7.375 10.359375 -7.625 C 9.859375 -7.882812 9.175781 -8.160156 8.3125 -8.453125 C 7.289062 -8.785156 6.445312 -9.128906 5.78125 -9.484375 C 5.113281 -9.835938 4.582031 -10.21875 4.1875 -10.625 C 3.789062 -11.03125 3.507812 -11.476562 3.34375 -11.96875 C 3.1875 -12.457031 3.109375 -13.015625 3.109375 -13.640625 C 3.109375 -14.515625 3.273438 -15.332031 3.609375 -16.09375 C 3.953125 -16.863281 4.445312 -17.535156 5.09375 -18.109375 C 5.75 -18.679688 6.546875 -19.132812 7.484375 -19.46875 C 8.421875 -19.800781 9.492188 -19.96875 10.703125 -19.96875 C 11.628906 -19.96875 12.4375 -19.878906 13.125 -19.703125 C 13.820312 -19.535156 14.425781 -19.300781 14.9375 -19 C 15.457031 -18.695312 15.890625 -18.335938 16.234375 -17.921875 C 16.585938 -17.515625 16.890625 -17.0625 17.140625 -16.5625 L 14.46875 -15.015625 C 14.375 -15.234375 14.238281 -15.472656 14.0625 -15.734375 C 13.882812 -16.003906 13.632812 -16.253906 13.3125 -16.484375 C 12.988281 -16.710938 12.585938 -16.898438 12.109375 -17.046875 C 11.640625 -17.203125 11.066406 -17.28125 10.390625 -17.28125 C 9.753906 -17.28125 9.179688 -17.203125 8.671875 -17.046875 C 8.160156 -16.890625 7.722656 -16.671875 7.359375 -16.390625 C 6.992188 -16.109375 6.710938 -15.773438 6.515625 -15.390625 C 6.316406 -15.015625 6.21875 -14.609375 6.21875 -14.171875 C 6.21875 -13.890625 6.257812 -13.613281 6.34375 -13.34375 C 6.4375 -13.070312 6.597656 -12.804688 6.828125 -12.546875 C 7.066406 -12.296875 7.390625 -12.054688 7.796875 -11.828125 C 8.203125 -11.609375 8.722656 -11.40625 9.359375 -11.21875 C 10.492188 -10.875 11.441406 -10.523438 12.203125 -10.171875 C 12.972656 -9.816406 13.585938 -9.421875 14.046875 -8.984375 C 14.503906 -8.554688 14.828125 -8.066406 15.015625 -7.515625 C 15.210938 -6.972656 15.3125 -6.335938 15.3125 -5.609375 C 15.3125 -4.753906 15.128906 -3.953125 14.765625 -3.203125 C 14.410156 -2.453125 13.882812 -1.796875 13.1875 -1.234375 C 12.5 -0.679688 11.640625 -0.242188 10.609375 0.078125 C 9.578125 0.410156 8.390625 0.578125 7.046875 0.578125 C 5.972656 0.578125 5.046875 0.476562 4.265625 0.28125 C 3.492188 0.0820312 2.835938 -0.175781 2.296875 -0.5 C 1.765625 -0.832031 1.34375 -1.207031 1.03125 -1.625 C 0.726562 -2.050781 0.507812 -2.484375 0.375 -2.921875 Z M 3.109375 -4.40625 "/></g></g></g><g fill="#051d40" fill-opacity="1"><g transform="translate(376.282972, 41.998625)"><g><path d="M 0.078125 5.421875 C 0.429688 5.066406 0.753906 4.644531 1.046875 4.15625 C 1.347656 3.675781 1.609375 3.191406 1.828125 2.703125 C 2.054688 2.210938 2.238281 1.75 2.375 1.3125 C 2.519531 0.882812 2.625 0.535156 2.6875 0.265625 C 2.113281 0.265625 1.695312 0.160156 1.4375 -0.046875 C 1.1875 -0.265625 1.0625 -0.601562 1.0625 -1.0625 C 1.0625 -1.53125 1.164062 -2.007812 1.375 -2.5 C 1.550781 -2.957031 1.8125 -3.304688 2.15625 -3.546875 C 2.5 -3.785156 2.984375 -3.90625 3.609375 -3.90625 C 4.328125 -3.90625 4.835938 -3.769531 5.140625 -3.5 C 5.453125 -3.238281 5.609375 -2.84375 5.609375 -2.3125 C 5.609375 -2.050781 5.570312 -1.75 5.5 -1.40625 C 5.425781 -1.0625 5.328125 -0.703125 5.203125 -0.328125 C 5.085938 0.046875 4.957031 0.421875 4.8125 0.796875 C 4.664062 1.179688 4.519531 1.53125 4.375 1.84375 C 3.988281 2.644531 3.582031 3.351562 3.15625 3.96875 C 2.738281 4.59375 2.34375 5.078125 1.96875 5.421875 Z M 0.078125 5.421875 "/></g></g></g><g fill="#051d40" fill-opacity="1"><g transform="translate(396.418214, 41.998625)"><g><path d="M 5.28125 -9.328125 C 5.15625 -8.742188 5.054688 -8.195312 4.984375 -7.6875 C 4.921875 -7.1875 4.890625 -6.707031 4.890625 -6.25 C 4.890625 -5.476562 4.972656 -4.832031 5.140625 -4.3125 C 5.304688 -3.789062 5.5625 -3.375 5.90625 -3.0625 C 6.257812 -2.75 6.703125 -2.523438 7.234375 -2.390625 C 7.773438 -2.265625 8.425781 -2.203125 9.1875 -2.203125 C 10.019531 -2.203125 10.84375 -2.414062 11.65625 -2.84375 C 12.46875 -3.28125 13.257812 -3.898438 14.03125 -4.703125 L 15.984375 -2.890625 C 15.023438 -1.785156 13.96875 -0.929688 12.8125 -0.328125 C 11.664062 0.273438 10.328125 0.578125 8.796875 0.578125 C 6.460938 0.578125 4.679688 0.015625 3.453125 -1.109375 C 2.234375 -2.234375 1.625 -3.960938 1.625 -6.296875 C 1.625 -7.046875 1.6875 -7.835938 1.8125 -8.671875 C 1.9375 -9.515625 2.117188 -10.359375 2.359375 -11.203125 C 2.609375 -12.046875 2.910156 -12.867188 3.265625 -13.671875 C 3.628906 -14.472656 4.046875 -15.222656 4.515625 -15.921875 C 5.335938 -17.160156 6.375 -18.144531 7.625 -18.875 C 8.875 -19.601562 10.414062 -19.96875 12.25 -19.96875 C 13.257812 -19.96875 14.144531 -19.820312 14.90625 -19.53125 C 15.675781 -19.238281 16.316406 -18.832031 16.828125 -18.3125 C 17.347656 -17.789062 17.734375 -17.15625 17.984375 -16.40625 C 18.242188 -15.65625 18.375 -14.828125 18.375 -13.921875 C 18.375 -13.796875 18.363281 -13.613281 18.34375 -13.375 C 18.332031 -13.144531 18.3125 -12.894531 18.28125 -12.625 C 18.257812 -12.351562 18.226562 -12.082031 18.1875 -11.8125 C 18.15625 -11.539062 18.117188 -11.304688 18.078125 -11.109375 L 17.6875 -9.328125 Z M 15.125 -11.828125 C 15.269531 -12.546875 15.34375 -13.21875 15.34375 -13.84375 C 15.34375 -14.96875 15.0625 -15.828125 14.5 -16.421875 C 13.945312 -17.023438 13.054688 -17.328125 11.828125 -17.328125 C 10.953125 -17.328125 10.175781 -17.175781 9.5 -16.875 C 8.832031 -16.582031 8.234375 -16.113281 7.703125 -15.46875 C 6.992188 -14.59375 6.367188 -13.378906 5.828125 -11.828125 Z M 15.125 -11.828125 "/></g></g></g><g fill="#051d40" fill-opacity="1"><g transform="translate(416.016748, 41.998625)"><g><path d="M 13 0 L 15.4375 -11.4375 C 15.582031 -12.144531 15.695312 -12.789062 15.78125 -13.375 C 15.875 -13.96875 15.921875 -14.5625 15.921875 -15.15625 C 15.921875 -15.738281 15.757812 -16.203125 15.4375 -16.546875 C 15.125 -16.890625 14.628906 -17.0625 13.953125 -17.0625 C 12.984375 -17.0625 11.90625 -16.765625 10.71875 -16.171875 C 9.53125 -15.578125 8.320312 -14.757812 7.09375 -13.71875 L 4.171875 0 L 1.015625 0 L 5.109375 -19.421875 L 8.25 -19.421875 L 7.65625 -16.53125 C 8.207031 -17.019531 8.769531 -17.476562 9.34375 -17.90625 C 9.914062 -18.332031 10.492188 -18.695312 11.078125 -19 C 11.660156 -19.300781 12.253906 -19.535156 12.859375 -19.703125 C 13.460938 -19.878906 14.066406 -19.96875 14.671875 -19.96875 C 15.503906 -19.96875 16.203125 -19.859375 16.765625 -19.640625 C 17.328125 -19.421875 17.78125 -19.113281 18.125 -18.71875 C 18.46875 -18.320312 18.710938 -17.847656 18.859375 -17.296875 C 19.015625 -16.753906 19.09375 -16.171875 19.09375 -15.546875 C 19.09375 -15.085938 19.039062 -14.515625 18.9375 -13.828125 C 18.832031 -13.140625 18.679688 -12.34375 18.484375 -11.4375 L 16.109375 0 Z M 13 0 "/></g></g></g><g fill="#051d40" fill-opacity="1"><g transform="translate(437.132825, 41.998625)"><g><path d="M 10.421875 0 C 9.847656 0.175781 9.257812 0.316406 8.65625 0.421875 C 8.050781 0.523438 7.492188 0.578125 6.984375 0.578125 C 6.179688 0.578125 5.5 0.476562 4.9375 0.28125 C 4.375 0.0820312 3.910156 -0.191406 3.546875 -0.546875 C 3.179688 -0.898438 2.914062 -1.316406 2.75 -1.796875 C 2.582031 -2.285156 2.5 -2.820312 2.5 -3.40625 C 2.5 -3.820312 2.523438 -4.28125 2.578125 -4.78125 C 2.640625 -5.289062 2.726562 -5.796875 2.84375 -6.296875 L 5.078125 -16.75 L 2.390625 -16.75 L 2.921875 -19.421875 L 5.609375 -19.421875 L 6.796875 -24.828125 L 9.90625 -24.828125 L 8.71875 -19.421875 L 13.5625 -19.421875 L 13.046875 -16.75 L 8.1875 -16.75 L 6 -6.484375 C 5.875 -5.960938 5.773438 -5.488281 5.703125 -5.0625 C 5.640625 -4.632812 5.609375 -4.257812 5.609375 -3.9375 C 5.609375 -3.289062 5.757812 -2.820312 6.0625 -2.53125 C 6.375 -2.238281 6.882812 -2.09375 7.59375 -2.09375 C 7.8125 -2.09375 8.039062 -2.101562 8.28125 -2.125 C 8.53125 -2.15625 8.78125 -2.191406 9.03125 -2.234375 C 9.289062 -2.285156 9.539062 -2.34375 9.78125 -2.40625 C 10.019531 -2.46875 10.234375 -2.535156 10.421875 -2.609375 Z M 10.421875 0 "/></g></g></g><g fill="#051d40" fill-opacity="1"><g transform="translate(450.365079, 41.998625)"><g><path d="M 14.78125 -16.234375 C 14.625 -16.304688 14.410156 -16.363281 14.140625 -16.40625 C 13.878906 -16.457031 13.625 -16.484375 13.375 -16.484375 C 12.738281 -16.484375 12.132812 -16.394531 11.5625 -16.21875 C 10.988281 -16.039062 10.4375 -15.804688 9.90625 -15.515625 C 9.382812 -15.222656 8.882812 -14.894531 8.40625 -14.53125 C 7.9375 -14.175781 7.472656 -13.804688 7.015625 -13.421875 L 4.171875 0 L 1.015625 0 L 5.109375 -19.421875 L 8.25 -19.421875 L 7.625 -16.265625 C 8.25 -16.859375 8.835938 -17.367188 9.390625 -17.796875 C 9.941406 -18.234375 10.46875 -18.59375 10.96875 -18.875 C 11.46875 -19.164062 11.953125 -19.378906 12.421875 -19.515625 C 12.890625 -19.648438 13.363281 -19.71875 13.84375 -19.71875 C 14.789062 -19.71875 15.53125 -19.570312 16.0625 -19.28125 Z M 14.78125 -16.234375 "/></g></g></g><g fill="#051d40" fill-opacity="1"><g transform="translate(465.077863, 41.998625)"><g><path d="M 5.28125 -9.328125 C 5.15625 -8.742188 5.054688 -8.195312 4.984375 -7.6875 C 4.921875 -7.1875 4.890625 -6.707031 4.890625 -6.25 C 4.890625 -5.476562 4.972656 -4.832031 5.140625 -4.3125 C 5.304688 -3.789062 5.5625 -3.375 5.90625 -3.0625 C 6.257812 -2.75 6.703125 -2.523438 7.234375 -2.390625 C 7.773438 -2.265625 8.425781 -2.203125 9.1875 -2.203125 C 10.019531 -2.203125 10.84375 -2.414062 11.65625 -2.84375 C 12.46875 -3.28125 13.257812 -3.898438 14.03125 -4.703125 L 15.984375 -2.890625 C 15.023438 -1.785156 13.96875 -0.929688 12.8125 -0.328125 C 11.664062 0.273438 10.328125 0.578125 8.796875 0.578125 C 6.460938 0.578125 4.679688 0.015625 3.453125 -1.109375 C 2.234375 -2.234375 1.625 -3.960938 1.625 -6.296875 C 1.625 -7.046875 1.6875 -7.835938 1.8125 -8.671875 C 1.9375 -9.515625 2.117188 -10.359375 2.359375 -11.203125 C 2.609375 -12.046875 2.910156 -12.867188 3.265625 -13.671875 C 3.628906 -14.472656 4.046875 -15.222656 4.515625 -15.921875 C 5.335938 -17.160156 6.375 -18.144531 7.625 -18.875 C 8.875 -19.601562 10.414062 -19.96875 12.25 -19.96875 C 13.257812 -19.96875 14.144531 -19.820312 14.90625 -19.53125 C 15.675781 -19.238281 16.316406 -18.832031 16.828125 -18.3125 C 17.347656 -17.789062 17.734375 -17.15625 17.984375 -16.40625 C 18.242188 -15.65625 18.375 -14.828125 18.375 -13.921875 C 18.375 -13.796875 18.363281 -13.613281 18.34375 -13.375 C 18.332031 -13.144531 18.3125 -12.894531 18.28125 -12.625 C 18.257812 -12.351562 18.226562 -12.082031 18.1875 -11.8125 C 18.15625 -11.539062 18.117188 -11.304688 18.078125 -11.109375 L 17.6875 -9.328125 Z M 15.125 -11.828125 C 15.269531 -12.546875 15.34375 -13.21875 15.34375 -13.84375 C 15.34375 -14.96875 15.0625 -15.828125 14.5 -16.421875 C 13.945312 -17.023438 13.054688 -17.328125 11.828125 -17.328125 C 10.953125 -17.328125 10.175781 -17.175781 9.5 -16.875 C 8.832031 -16.582031 8.234375 -16.113281 7.703125 -15.46875 C 6.992188 -14.59375 6.367188 -13.378906 5.828125 -11.828125 Z M 15.125 -11.828125 "/></g></g></g><g fill="#051d40" fill-opacity="1"><g transform="translate(484.676397, 41.998625)"><g><path d="M 16.109375 0.140625 C 15.816406 1.472656 15.425781 2.59375 14.9375 3.5 C 14.445312 4.414062 13.820312 5.15625 13.0625 5.71875 C 12.300781 6.289062 11.382812 6.695312 10.3125 6.9375 C 9.25 7.1875 8.007812 7.3125 6.59375 7.3125 C 5.007812 7.3125 3.664062 7.140625 2.5625 6.796875 C 1.46875 6.460938 0.578125 6.03125 -0.109375 5.5 L 1.484375 3.078125 C 2.171875 3.566406 2.925781 3.953125 3.75 4.234375 C 4.582031 4.523438 5.566406 4.671875 6.703125 4.671875 C 7.671875 4.671875 8.507812 4.59375 9.21875 4.4375 C 9.9375 4.28125 10.546875 4.003906 11.046875 3.609375 C 11.554688 3.210938 11.976562 2.675781 12.3125 2 C 12.65625 1.332031 12.9375 0.472656 13.15625 -0.578125 L 13.5625 -2.5 C 13.132812 -2.144531 12.671875 -1.816406 12.171875 -1.515625 C 11.679688 -1.210938 11.171875 -0.945312 10.640625 -0.71875 C 10.117188 -0.5 9.59375 -0.320312 9.0625 -0.1875 C 8.539062 -0.0625 8.023438 0 7.515625 0 C 6.441406 0 5.53125 -0.164062 4.78125 -0.5 C 4.039062 -0.84375 3.4375 -1.316406 2.96875 -1.921875 C 2.507812 -2.535156 2.175781 -3.265625 1.96875 -4.109375 C 1.769531 -4.960938 1.671875 -5.894531 1.671875 -6.90625 C 1.671875 -7.851562 1.769531 -8.832031 1.96875 -9.84375 C 2.164062 -10.851562 2.457031 -11.84375 2.84375 -12.8125 C 3.238281 -13.78125 3.726562 -14.695312 4.3125 -15.5625 C 4.894531 -16.425781 5.566406 -17.1875 6.328125 -17.84375 C 7.097656 -18.5 7.953125 -19.015625 8.890625 -19.390625 C 9.828125 -19.773438 10.851562 -19.96875 11.96875 -19.96875 C 12.351562 -19.96875 12.757812 -19.914062 13.1875 -19.8125 C 13.625 -19.71875 14.054688 -19.578125 14.484375 -19.390625 C 14.910156 -19.210938 15.320312 -18.988281 15.71875 -18.71875 C 16.125 -18.457031 16.476562 -18.160156 16.78125 -17.828125 L 17.140625 -19.421875 L 20.25 -19.421875 Z M 16.234375 -15.046875 C 15.617188 -15.710938 14.945312 -16.226562 14.21875 -16.59375 C 13.488281 -16.957031 12.679688 -17.140625 11.796875 -17.140625 C 11.023438 -17.140625 10.320312 -16.972656 9.6875 -16.640625 C 9.050781 -16.316406 8.484375 -15.882812 7.984375 -15.34375 C 7.484375 -14.800781 7.046875 -14.175781 6.671875 -13.46875 C 6.296875 -12.757812 5.984375 -12.019531 5.734375 -11.25 C 5.492188 -10.488281 5.3125 -9.722656 5.1875 -8.953125 C 5.0625 -8.191406 5 -7.484375 5 -6.828125 C 5 -5.429688 5.238281 -4.414062 5.71875 -3.78125 C 6.195312 -3.15625 7.003906 -2.84375 8.140625 -2.84375 C 8.710938 -2.84375 9.265625 -2.90625 9.796875 -3.03125 C 10.335938 -3.164062 10.859375 -3.347656 11.359375 -3.578125 C 11.867188 -3.804688 12.359375 -4.070312 12.828125 -4.375 C 13.296875 -4.675781 13.742188 -5 14.171875 -5.34375 Z M 16.234375 -15.046875 "/></g></g></g><g fill="#051d40" fill-opacity="1"><g transform="translate(505.97754, 41.998625)"><g><path d="M 1.703125 -6.328125 C 1.703125 -7.191406 1.785156 -8.125 1.953125 -9.125 C 2.117188 -10.132812 2.367188 -11.144531 2.703125 -12.15625 C 3.046875 -13.164062 3.484375 -14.140625 4.015625 -15.078125 C 4.554688 -16.015625 5.191406 -16.847656 5.921875 -17.578125 C 6.660156 -18.304688 7.503906 -18.882812 8.453125 -19.3125 C 9.410156 -19.75 10.472656 -19.96875 11.640625 -19.96875 C 12.828125 -19.96875 13.828125 -19.78125 14.640625 -19.40625 C 15.460938 -19.03125 16.175781 -18.503906 16.78125 -17.828125 L 17.140625 -19.421875 L 20.28125 -19.421875 L 16.171875 0 L 13.046875 0 L 13.53125 -2.3125 C 13.070312 -1.914062 12.609375 -1.546875 12.140625 -1.203125 C 11.671875 -0.859375 11.1875 -0.550781 10.6875 -0.28125 C 10.1875 -0.0195312 9.660156 0.1875 9.109375 0.34375 C 8.566406 0.5 7.992188 0.578125 7.390625 0.578125 C 6.359375 0.578125 5.484375 0.425781 4.765625 0.125 C 4.046875 -0.175781 3.457031 -0.617188 3 -1.203125 C 2.550781 -1.796875 2.222656 -2.519531 2.015625 -3.375 C 1.804688 -4.238281 1.703125 -5.222656 1.703125 -6.328125 Z M 16.234375 -15.046875 C 15.617188 -15.710938 14.953125 -16.226562 14.234375 -16.59375 C 13.515625 -16.957031 12.625 -17.140625 11.5625 -17.140625 C 10.800781 -17.140625 10.109375 -16.972656 9.484375 -16.640625 C 8.859375 -16.304688 8.300781 -15.851562 7.8125 -15.28125 C 7.320312 -14.71875 6.894531 -14.066406 6.53125 -13.328125 C 6.164062 -12.585938 5.863281 -11.816406 5.625 -11.015625 C 5.394531 -10.210938 5.21875 -9.398438 5.09375 -8.578125 C 4.976562 -7.753906 4.921875 -6.976562 4.921875 -6.25 C 4.921875 -4.820312 5.171875 -3.800781 5.671875 -3.1875 C 6.171875 -2.582031 6.957031 -2.28125 8.03125 -2.28125 C 8.582031 -2.28125 9.128906 -2.351562 9.671875 -2.5 C 10.222656 -2.65625 10.753906 -2.863281 11.265625 -3.125 C 11.785156 -3.394531 12.285156 -3.703125 12.765625 -4.046875 C 13.253906 -4.398438 13.710938 -4.769531 14.140625 -5.15625 Z M 16.234375 -15.046875 "/></g></g></g><g fill="#051d40" fill-opacity="1"><g transform="translate(527.278683, 41.998625)"><g><path d="M 13 0 L 15.4375 -11.4375 C 15.582031 -12.144531 15.695312 -12.789062 15.78125 -13.375 C 15.875 -13.96875 15.921875 -14.5625 15.921875 -15.15625 C 15.921875 -15.738281 15.757812 -16.203125 15.4375 -16.546875 C 15.125 -16.890625 14.628906 -17.0625 13.953125 -17.0625 C 12.984375 -17.0625 11.90625 -16.765625 10.71875 -16.171875 C 9.53125 -15.578125 8.320312 -14.757812 7.09375 -13.71875 L 4.171875 0 L 1.015625 0 L 5.109375 -19.421875 L 8.25 -19.421875 L 7.65625 -16.53125 C 8.207031 -17.019531 8.769531 -17.476562 9.34375 -17.90625 C 9.914062 -18.332031 10.492188 -18.695312 11.078125 -19 C 11.660156 -19.300781 12.253906 -19.535156 12.859375 -19.703125 C 13.460938 -19.878906 14.066406 -19.96875 14.671875 -19.96875 C 15.503906 -19.96875 16.203125 -19.859375 16.765625 -19.640625 C 17.328125 -19.421875 17.78125 -19.113281 18.125 -18.71875 C 18.46875 -18.320312 18.710938 -17.847656 18.859375 -17.296875 C 19.015625 -16.753906 19.09375 -16.171875 19.09375 -15.546875 C 19.09375 -15.085938 19.039062 -14.515625 18.9375 -13.828125 C 18.832031 -13.140625 18.679688 -12.34375 18.484375 -11.4375 L 16.109375 0 Z M 13 0 "/></g></g></g><g fill="#051d40" fill-opacity="1"><g transform="translate(548.394759, 41.998625)"><g><path d="M 1.625 -6.328125 C 1.625 -7.054688 1.691406 -7.851562 1.828125 -8.71875 C 1.960938 -9.59375 2.164062 -10.476562 2.4375 -11.375 C 2.707031 -12.28125 3.050781 -13.171875 3.46875 -14.046875 C 3.882812 -14.921875 4.367188 -15.734375 4.921875 -16.484375 C 5.773438 -17.609375 6.785156 -18.46875 7.953125 -19.0625 C 9.128906 -19.664062 10.46875 -19.96875 11.96875 -19.96875 C 12.988281 -19.96875 13.894531 -19.78125 14.6875 -19.40625 C 15.476562 -19.03125 16.175781 -18.503906 16.78125 -17.828125 L 18.84375 -27.5625 L 21.984375 -27.5625 L 16.171875 0 L 13.046875 0 L 13.421875 -1.921875 C 12.984375 -1.578125 12.539062 -1.253906 12.09375 -0.953125 C 11.644531 -0.648438 11.171875 -0.382812 10.671875 -0.15625 C 10.171875 0.0703125 9.648438 0.25 9.109375 0.375 C 8.566406 0.507812 7.992188 0.578125 7.390625 0.578125 C 6.359375 0.578125 5.476562 0.425781 4.75 0.125 C 4.03125 -0.175781 3.4375 -0.617188 2.96875 -1.203125 C 2.507812 -1.796875 2.171875 -2.519531 1.953125 -3.375 C 1.734375 -4.238281 1.625 -5.222656 1.625 -6.328125 Z M 7.3125 -14.4375 C 6.925781 -13.882812 6.585938 -13.273438 6.296875 -12.609375 C 6.015625 -11.953125 5.773438 -11.269531 5.578125 -10.5625 C 5.378906 -9.863281 5.222656 -9.148438 5.109375 -8.421875 C 5.003906 -7.691406 4.953125 -6.96875 4.953125 -6.25 C 4.953125 -4.820312 5.195312 -3.800781 5.6875 -3.1875 C 6.175781 -2.582031 6.957031 -2.28125 8.03125 -2.28125 C 8.582031 -2.28125 9.132812 -2.347656 9.6875 -2.484375 C 10.238281 -2.617188 10.765625 -2.800781 11.265625 -3.03125 C 11.773438 -3.269531 12.265625 -3.539062 12.734375 -3.84375 C 13.203125 -4.144531 13.632812 -4.457031 14.03125 -4.78125 L 16.234375 -15.046875 C 15.617188 -15.710938 14.960938 -16.226562 14.265625 -16.59375 C 13.566406 -16.957031 12.742188 -17.140625 11.796875 -17.140625 C 10.941406 -17.140625 10.132812 -16.921875 9.375 -16.484375 C 8.613281 -16.046875 7.925781 -15.363281 7.3125 -14.4375 Z M 7.3125 -14.4375 "/></g></g></g><g fill="#051d40" fill-opacity="1"><g transform="translate(569.695936, 41.998625)"><g><path d="M 1.703125 -7.015625 C 1.703125 -7.679688 1.765625 -8.425781 1.890625 -9.25 C 2.023438 -10.082031 2.234375 -10.9375 2.515625 -11.8125 C 2.796875 -12.695312 3.160156 -13.570312 3.609375 -14.4375 C 4.066406 -15.300781 4.625 -16.097656 5.28125 -16.828125 C 5.6875 -17.296875 6.128906 -17.71875 6.609375 -18.09375 C 7.097656 -18.476562 7.632812 -18.8125 8.21875 -19.09375 C 8.8125 -19.375 9.445312 -19.585938 10.125 -19.734375 C 10.800781 -19.890625 11.535156 -19.96875 12.328125 -19.96875 C 14.535156 -19.96875 16.242188 -19.34375 17.453125 -18.09375 C 18.671875 -16.851562 19.28125 -14.96875 19.28125 -12.4375 C 19.28125 -11.675781 19.207031 -10.835938 19.0625 -9.921875 C 18.925781 -9.015625 18.703125 -8.097656 18.390625 -7.171875 C 18.078125 -6.253906 17.671875 -5.351562 17.171875 -4.46875 C 16.671875 -3.582031 16.0625 -2.789062 15.34375 -2.09375 C 14.539062 -1.289062 13.601562 -0.644531 12.53125 -0.15625 C 11.46875 0.332031 10.234375 0.578125 8.828125 0.578125 C 7.535156 0.578125 6.4375 0.410156 5.53125 0.078125 C 4.625 -0.242188 3.890625 -0.722656 3.328125 -1.359375 C 2.765625 -1.992188 2.351562 -2.78125 2.09375 -3.71875 C 1.832031 -4.664062 1.703125 -5.765625 1.703125 -7.015625 Z M 4.921875 -6.828125 C 4.921875 -6.023438 4.992188 -5.332031 5.140625 -4.75 C 5.296875 -4.164062 5.535156 -3.679688 5.859375 -3.296875 C 6.179688 -2.921875 6.601562 -2.644531 7.125 -2.46875 C 7.644531 -2.289062 8.273438 -2.203125 9.015625 -2.203125 C 9.898438 -2.203125 10.695312 -2.382812 11.40625 -2.75 C 12.113281 -3.113281 12.75 -3.609375 13.3125 -4.234375 C 13.738281 -4.734375 14.125 -5.304688 14.46875 -5.953125 C 14.820312 -6.609375 15.113281 -7.300781 15.34375 -8.03125 C 15.582031 -8.757812 15.757812 -9.503906 15.875 -10.265625 C 16 -11.023438 16.0625 -11.75 16.0625 -12.4375 C 16.0625 -14.082031 15.726562 -15.289062 15.0625 -16.0625 C 14.40625 -16.832031 13.390625 -17.21875 12.015625 -17.21875 C 11.015625 -17.21875 10.125 -16.984375 9.34375 -16.515625 C 8.570312 -16.054688 7.90625 -15.457031 7.34375 -14.71875 C 6.96875 -14.207031 6.628906 -13.628906 6.328125 -12.984375 C 6.035156 -12.347656 5.78125 -11.679688 5.5625 -10.984375 C 5.351562 -10.296875 5.191406 -9.59375 5.078125 -8.875 C 4.972656 -8.164062 4.921875 -7.484375 4.921875 -6.828125 Z M 4.921875 -6.828125 "/></g></g></g><g fill="#051d40" fill-opacity="1"><g transform="translate(600.750087, 41.998625)"><g><path d="M 3.109375 -4.40625 C 3.429688 -3.695312 3.910156 -3.140625 4.546875 -2.734375 C 5.191406 -2.328125 6.101562 -2.125 7.28125 -2.125 C 7.820312 -2.125 8.378906 -2.175781 8.953125 -2.28125 C 9.523438 -2.382812 10.046875 -2.5625 10.515625 -2.8125 C 10.984375 -3.0625 11.367188 -3.382812 11.671875 -3.78125 C 11.972656 -4.1875 12.125 -4.6875 12.125 -5.28125 C 12.125 -5.570312 12.085938 -5.847656 12.015625 -6.109375 C 11.941406 -6.367188 11.773438 -6.625 11.515625 -6.875 C 11.253906 -7.125 10.867188 -7.375 10.359375 -7.625 C 9.859375 -7.882812 9.175781 -8.160156 8.3125 -8.453125 C 7.289062 -8.785156 6.445312 -9.128906 5.78125 -9.484375 C 5.113281 -9.835938 4.582031 -10.21875 4.1875 -10.625 C 3.789062 -11.03125 3.507812 -11.476562 3.34375 -11.96875 C 3.1875 -12.457031 3.109375 -13.015625 3.109375 -13.640625 C 3.109375 -14.515625 3.273438 -15.332031 3.609375 -16.09375 C 3.953125 -16.863281 4.445312 -17.535156 5.09375 -18.109375 C 5.75 -18.679688 6.546875 -19.132812 7.484375 -19.46875 C 8.421875 -19.800781 9.492188 -19.96875 10.703125 -19.96875 C 11.628906 -19.96875 12.4375 -19.878906 13.125 -19.703125 C 13.820312 -19.535156 14.425781 -19.300781 14.9375 -19 C 15.457031 -18.695312 15.890625 -18.335938 16.234375 -17.921875 C 16.585938 -17.515625 16.890625 -17.0625 17.140625 -16.5625 L 14.46875 -15.015625 C 14.375 -15.234375 14.238281 -15.472656 14.0625 -15.734375 C 13.882812 -16.003906 13.632812 -16.253906 13.3125 -16.484375 C 12.988281 -16.710938 12.585938 -16.898438 12.109375 -17.046875 C 11.640625 -17.203125 11.066406 -17.28125 10.390625 -17.28125 C 9.753906 -17.28125 9.179688 -17.203125 8.671875 -17.046875 C 8.160156 -16.890625 7.722656 -16.671875 7.359375 -16.390625 C 6.992188 -16.109375 6.710938 -15.773438 6.515625 -15.390625 C 6.316406 -15.015625 6.21875 -14.609375 6.21875 -14.171875 C 6.21875 -13.890625 6.257812 -13.613281 6.34375 -13.34375 C 6.4375 -13.070312 6.597656 -12.804688 6.828125 -12.546875 C 7.066406 -12.296875 7.390625 -12.054688 7.796875 -11.828125 C 8.203125 -11.609375 8.722656 -11.40625 9.359375 -11.21875 C 10.492188 -10.875 11.441406 -10.523438 12.203125 -10.171875 C 12.972656 -9.816406 13.585938 -9.421875 14.046875 -8.984375 C 14.503906 -8.554688 14.828125 -8.066406 15.015625 -7.515625 C 15.210938 -6.972656 15.3125 -6.335938 15.3125 -5.609375 C 15.3125 -4.753906 15.128906 -3.953125 14.765625 -3.203125 C 14.410156 -2.453125 13.882812 -1.796875 13.1875 -1.234375 C 12.5 -0.679688 11.640625 -0.242188 10.609375 0.078125 C 9.578125 0.410156 8.390625 0.578125 7.046875 0.578125 C 5.972656 0.578125 5.046875 0.476562 4.265625 0.28125 C 3.492188 0.0820312 2.835938 -0.175781 2.296875 -0.5 C 1.765625 -0.832031 1.34375 -1.207031 1.03125 -1.625 C 0.726562 -2.050781 0.507812 -2.484375 0.375 -2.921875 Z M 3.109375 -4.40625 "/></g></g></g><g fill="#051d40" fill-opacity="1"><g transform="translate(618.720038, 41.998625)"><g><path d="M 1.703125 -7.015625 C 1.703125 -7.679688 1.765625 -8.425781 1.890625 -9.25 C 2.023438 -10.082031 2.234375 -10.9375 2.515625 -11.8125 C 2.796875 -12.695312 3.160156 -13.570312 3.609375 -14.4375 C 4.066406 -15.300781 4.625 -16.097656 5.28125 -16.828125 C 5.6875 -17.296875 6.128906 -17.71875 6.609375 -18.09375 C 7.097656 -18.476562 7.632812 -18.8125 8.21875 -19.09375 C 8.8125 -19.375 9.445312 -19.585938 10.125 -19.734375 C 10.800781 -19.890625 11.535156 -19.96875 12.328125 -19.96875 C 14.535156 -19.96875 16.242188 -19.34375 17.453125 -18.09375 C 18.671875 -16.851562 19.28125 -14.96875 19.28125 -12.4375 C 19.28125 -11.675781 19.207031 -10.835938 19.0625 -9.921875 C 18.925781 -9.015625 18.703125 -8.097656 18.390625 -7.171875 C 18.078125 -6.253906 17.671875 -5.351562 17.171875 -4.46875 C 16.671875 -3.582031 16.0625 -2.789062 15.34375 -2.09375 C 14.539062 -1.289062 13.601562 -0.644531 12.53125 -0.15625 C 11.46875 0.332031 10.234375 0.578125 8.828125 0.578125 C 7.535156 0.578125 6.4375 0.410156 5.53125 0.078125 C 4.625 -0.242188 3.890625 -0.722656 3.328125 -1.359375 C 2.765625 -1.992188 2.351562 -2.78125 2.09375 -3.71875 C 1.832031 -4.664062 1.703125 -5.765625 1.703125 -7.015625 Z M 4.921875 -6.828125 C 4.921875 -6.023438 4.992188 -5.332031 5.140625 -4.75 C 5.296875 -4.164062 5.535156 -3.679688 5.859375 -3.296875 C 6.179688 -2.921875 6.601562 -2.644531 7.125 -2.46875 C 7.644531 -2.289062 8.273438 -2.203125 9.015625 -2.203125 C 9.898438 -2.203125 10.695312 -2.382812 11.40625 -2.75 C 12.113281 -3.113281 12.75 -3.609375 13.3125 -4.234375 C 13.738281 -4.734375 14.125 -5.304688 14.46875 -5.953125 C 14.820312 -6.609375 15.113281 -7.300781 15.34375 -8.03125 C 15.582031 -8.757812 15.757812 -9.503906 15.875 -10.265625 C 16 -11.023438 16.0625 -11.75 16.0625 -12.4375 C 16.0625 -14.082031 15.726562 -15.289062 15.0625 -16.0625 C 14.40625 -16.832031 13.390625 -17.21875 12.015625 -17.21875 C 11.015625 -17.21875 10.125 -16.984375 9.34375 -16.515625 C 8.570312 -16.054688 7.90625 -15.457031 7.34375 -14.71875 C 6.96875 -14.207031 6.628906 -13.628906 6.328125 -12.984375 C 6.035156 -12.347656 5.78125 -11.679688 5.5625 -10.984375 C 5.351562 -10.296875 5.191406 -9.59375 5.078125 -8.875 C 4.972656 -8.164062 4.921875 -7.484375 4.921875 -6.828125 Z M 4.921875 -6.828125 "/></g></g></g><g fill="#051d40" fill-opacity="1"><g transform="translate(639.725008, 41.998625)"><g><path d="M 1.171875 0 L 7.015625 -27.5625 L 10.15625 -27.5625 L 4.3125 0 Z M 1.171875 0 "/></g></g></g><g fill="#051d40" fill-opacity="1"><g transform="translate(649.311473, 41.998625)"><g><path d="M 8.0625 -19.421875 L 5.6875 -7.953125 C 5.53125 -7.253906 5.398438 -6.617188 5.296875 -6.046875 C 5.203125 -5.472656 5.15625 -4.925781 5.15625 -4.40625 C 5.15625 -3.664062 5.3125 -3.132812 5.625 -2.8125 C 5.9375 -2.5 6.425781 -2.34375 7.09375 -2.34375 C 8.070312 -2.34375 9.15625 -2.632812 10.34375 -3.21875 C 11.539062 -3.8125 12.757812 -4.632812 14 -5.6875 L 16.90625 -19.421875 L 20.046875 -19.421875 L 15.953125 0 L 12.8125 0 L 13.421875 -2.890625 C 12.867188 -2.378906 12.304688 -1.910156 11.734375 -1.484375 C 11.171875 -1.054688 10.59375 -0.691406 10 -0.390625 C 9.40625 -0.0859375 8.804688 0.144531 8.203125 0.3125 C 7.609375 0.488281 7.007812 0.578125 6.40625 0.578125 C 5.570312 0.578125 4.875 0.460938 4.3125 0.234375 C 3.757812 0.015625 3.304688 -0.289062 2.953125 -0.6875 C 2.597656 -1.09375 2.34375 -1.566406 2.1875 -2.109375 C 2.039062 -2.648438 1.96875 -3.238281 1.96875 -3.875 C 1.96875 -4.320312 2.019531 -4.890625 2.125 -5.578125 C 2.238281 -6.273438 2.390625 -7.066406 2.578125 -7.953125 L 4.953125 -19.421875 Z M 8.0625 -19.421875 "/></g></g></g><g fill="#051d40" fill-opacity="1"><g transform="translate(670.427517, 41.998625)"><g><path d="M 11.96875 3.515625 C 11.96875 4.765625 11.488281 5.707031 10.53125 6.34375 C 9.582031 6.988281 8.253906 7.3125 6.546875 7.3125 C 6.078125 7.3125 5.617188 7.28125 5.171875 7.21875 C 4.734375 7.15625 4.328125 7.078125 3.953125 6.984375 C 3.578125 6.898438 3.25 6.804688 2.96875 6.703125 C 2.6875 6.597656 2.492188 6.507812 2.390625 6.4375 L 3.71875 4.59375 C 3.90625 4.675781 4.128906 4.753906 4.390625 4.828125 C 4.648438 4.898438 4.914062 4.960938 5.1875 5.015625 C 5.46875 5.078125 5.75 5.125 6.03125 5.15625 C 6.3125 5.1875 6.578125 5.203125 6.828125 5.203125 C 7.140625 5.203125 7.460938 5.175781 7.796875 5.125 C 8.128906 5.070312 8.429688 4.984375 8.703125 4.859375 C 8.972656 4.734375 9.191406 4.554688 9.359375 4.328125 C 9.535156 4.109375 9.625 3.828125 9.625 3.484375 C 9.625 3.023438 9.382812 2.648438 8.90625 2.359375 C 8.425781 2.078125 7.722656 1.90625 6.796875 1.84375 L 7.703125 0.53125 C 6.628906 0.457031 5.707031 0.238281 4.9375 -0.125 C 4.175781 -0.5 3.550781 -0.988281 3.0625 -1.59375 C 2.582031 -2.207031 2.226562 -2.929688 2 -3.765625 C 1.78125 -4.609375 1.671875 -5.550781 1.671875 -6.59375 C 1.671875 -7.425781 1.753906 -8.335938 1.921875 -9.328125 C 2.085938 -10.316406 2.347656 -11.300781 2.703125 -12.28125 C 3.054688 -13.269531 3.515625 -14.226562 4.078125 -15.15625 C 4.640625 -16.082031 5.316406 -16.898438 6.109375 -17.609375 C 6.898438 -18.328125 7.8125 -18.898438 8.84375 -19.328125 C 9.875 -19.753906 11.035156 -19.96875 12.328125 -19.96875 C 13.867188 -19.96875 15.175781 -19.675781 16.25 -19.09375 C 17.320312 -18.507812 18.097656 -17.617188 18.578125 -16.421875 L 15.765625 -14.90625 C 15.460938 -15.664062 15.015625 -16.238281 14.421875 -16.625 C 13.828125 -17.019531 13.023438 -17.21875 12.015625 -17.21875 C 11.210938 -17.21875 10.476562 -17.050781 9.8125 -16.71875 C 9.144531 -16.394531 8.546875 -15.957031 8.015625 -15.40625 C 7.492188 -14.851562 7.039062 -14.21875 6.65625 -13.5 C 6.269531 -12.78125 5.945312 -12.019531 5.6875 -11.21875 C 5.425781 -10.425781 5.234375 -9.613281 5.109375 -8.78125 C 4.984375 -7.957031 4.921875 -7.175781 4.921875 -6.4375 C 4.921875 -5.8125 4.988281 -5.234375 5.125 -4.703125 C 5.257812 -4.179688 5.484375 -3.734375 5.796875 -3.359375 C 6.117188 -2.992188 6.53125 -2.707031 7.03125 -2.5 C 7.539062 -2.300781 8.164062 -2.203125 8.90625 -2.203125 C 9.40625 -2.203125 9.867188 -2.257812 10.296875 -2.375 C 10.734375 -2.488281 11.148438 -2.65625 11.546875 -2.875 C 11.941406 -3.09375 12.320312 -3.363281 12.6875 -3.6875 C 13.050781 -4.007812 13.421875 -4.375 13.796875 -4.78125 L 15.953125 -3 C 15.210938 -2.050781 14.332031 -1.257812 13.3125 -0.625 C 12.300781 0 11.070312 0.398438 9.625 0.578125 C 10.4375 0.816406 11.03125 1.1875 11.40625 1.6875 C 11.78125 2.1875 11.96875 2.796875 11.96875 3.515625 Z M 11.96875 3.515625 "/></g></g></g><g fill="#051d40" fill-opacity="1"><g transform="translate(689.119242, 41.998625)"><g><path d="M 1.703125 -7.015625 C 1.703125 -7.679688 1.765625 -8.425781 1.890625 -9.25 C 2.023438 -10.082031 2.234375 -10.9375 2.515625 -11.8125 C 2.796875 -12.695312 3.160156 -13.570312 3.609375 -14.4375 C 4.066406 -15.300781 4.625 -16.097656 5.28125 -16.828125 C 5.6875 -17.296875 6.128906 -17.71875 6.609375 -18.09375 C 7.097656 -18.476562 7.632812 -18.8125 8.21875 -19.09375 C 8.8125 -19.375 9.445312 -19.585938 10.125 -19.734375 C 10.800781 -19.890625 11.535156 -19.96875 12.328125 -19.96875 C 14.535156 -19.96875 16.242188 -19.34375 17.453125 -18.09375 C 18.671875 -16.851562 19.28125 -14.96875 19.28125 -12.4375 C 19.28125 -11.675781 19.207031 -10.835938 19.0625 -9.921875 C 18.925781 -9.015625 18.703125 -8.097656 18.390625 -7.171875 C 18.078125 -6.253906 17.671875 -5.351562 17.171875 -4.46875 C 16.671875 -3.582031 16.0625 -2.789062 15.34375 -2.09375 C 14.539062 -1.289062 13.601562 -0.644531 12.53125 -0.15625 C 11.46875 0.332031 10.234375 0.578125 8.828125 0.578125 C 7.535156 0.578125 6.4375 0.410156 5.53125 0.078125 C 4.625 -0.242188 3.890625 -0.722656 3.328125 -1.359375 C 2.765625 -1.992188 2.351562 -2.78125 2.09375 -3.71875 C 1.832031 -4.664062 1.703125 -5.765625 1.703125 -7.015625 Z M 4.921875 -6.828125 C 4.921875 -6.023438 4.992188 -5.332031 5.140625 -4.75 C 5.296875 -4.164062 5.535156 -3.679688 5.859375 -3.296875 C 6.179688 -2.921875 6.601562 -2.644531 7.125 -2.46875 C 7.644531 -2.289062 8.273438 -2.203125 9.015625 -2.203125 C 9.898438 -2.203125 10.695312 -2.382812 11.40625 -2.75 C 12.113281 -3.113281 12.75 -3.609375 13.3125 -4.234375 C 13.738281 -4.734375 14.125 -5.304688 14.46875 -5.953125 C 14.820312 -6.609375 15.113281 -7.300781 15.34375 -8.03125 C 15.582031 -8.757812 15.757812 -9.503906 15.875 -10.265625 C 16 -11.023438 16.0625 -11.75 16.0625 -12.4375 C 16.0625 -14.082031 15.726562 -15.289062 15.0625 -16.0625 C 14.40625 -16.832031 13.390625 -17.21875 12.015625 -17.21875 C 11.015625 -17.21875 10.125 -16.984375 9.34375 -16.515625 C 8.570312 -16.054688 7.90625 -15.457031 7.34375 -14.71875 C 6.96875 -14.207031 6.628906 -13.628906 6.328125 -12.984375 C 6.035156 -12.347656 5.78125 -11.679688 5.5625 -10.984375 C 5.351562 -10.296875 5.191406 -9.59375 5.078125 -8.875 C 4.972656 -8.164062 4.921875 -7.484375 4.921875 -6.828125 Z M 6.21875 -22.59375 C 6.632812 -24.21875 7.269531 -25.429688 8.125 -26.234375 C 8.988281 -27.046875 9.984375 -27.453125 11.109375 -27.453125 C 11.816406 -27.453125 12.398438 -27.316406 12.859375 -27.046875 C 13.328125 -26.773438 13.738281 -26.472656 14.09375 -26.140625 C 14.445312 -25.804688 14.78125 -25.503906 15.09375 -25.234375 C 15.414062 -24.960938 15.796875 -24.828125 16.234375 -24.828125 C 16.835938 -24.828125 17.347656 -25.050781 17.765625 -25.5 C 18.179688 -25.957031 18.476562 -26.523438 18.65625 -27.203125 L 20.859375 -27.203125 C 20.472656 -25.671875 19.867188 -24.476562 19.046875 -23.625 C 18.222656 -22.78125 17.144531 -22.359375 15.8125 -22.359375 C 15.238281 -22.359375 14.757812 -22.421875 14.375 -22.546875 C 13.988281 -22.679688 13.648438 -22.847656 13.359375 -23.046875 C 13.066406 -23.242188 12.816406 -23.453125 12.609375 -23.671875 C 12.410156 -23.890625 12.210938 -24.097656 12.015625 -24.296875 C 11.828125 -24.492188 11.628906 -24.65625 11.421875 -24.78125 C 11.210938 -24.914062 10.972656 -24.984375 10.703125 -24.984375 C 10.179688 -24.984375 9.722656 -24.773438 9.328125 -24.359375 C 8.929688 -23.953125 8.628906 -23.363281 8.421875 -22.59375 Z M 6.21875 -22.59375 "/></g></g></g><g fill="#051d40" fill-opacity="1"><g transform="translate(710.124279, 41.998625)"><g><path d="M 5.28125 -9.328125 C 5.15625 -8.742188 5.054688 -8.195312 4.984375 -7.6875 C 4.921875 -7.1875 4.890625 -6.707031 4.890625 -6.25 C 4.890625 -5.476562 4.972656 -4.832031 5.140625 -4.3125 C 5.304688 -3.789062 5.5625 -3.375 5.90625 -3.0625 C 6.257812 -2.75 6.703125 -2.523438 7.234375 -2.390625 C 7.773438 -2.265625 8.425781 -2.203125 9.1875 -2.203125 C 10.019531 -2.203125 10.84375 -2.414062 11.65625 -2.84375 C 12.46875 -3.28125 13.257812 -3.898438 14.03125 -4.703125 L 15.984375 -2.890625 C 15.023438 -1.785156 13.96875 -0.929688 12.8125 -0.328125 C 11.664062 0.273438 10.328125 0.578125 8.796875 0.578125 C 6.460938 0.578125 4.679688 0.015625 3.453125 -1.109375 C 2.234375 -2.234375 1.625 -3.960938 1.625 -6.296875 C 1.625 -7.046875 1.6875 -7.835938 1.8125 -8.671875 C 1.9375 -9.515625 2.117188 -10.359375 2.359375 -11.203125 C 2.609375 -12.046875 2.910156 -12.867188 3.265625 -13.671875 C 3.628906 -14.472656 4.046875 -15.222656 4.515625 -15.921875 C 5.335938 -17.160156 6.375 -18.144531 7.625 -18.875 C 8.875 -19.601562 10.414062 -19.96875 12.25 -19.96875 C 13.257812 -19.96875 14.144531 -19.820312 14.90625 -19.53125 C 15.675781 -19.238281 16.316406 -18.832031 16.828125 -18.3125 C 17.347656 -17.789062 17.734375 -17.15625 17.984375 -16.40625 C 18.242188 -15.65625 18.375 -14.828125 18.375 -13.921875 C 18.375 -13.796875 18.363281 -13.613281 18.34375 -13.375 C 18.332031 -13.144531 18.3125 -12.894531 18.28125 -12.625 C 18.257812 -12.351562 18.226562 -12.082031 18.1875 -11.8125 C 18.15625 -11.539062 18.117188 -11.304688 18.078125 -11.109375 L 17.6875 -9.328125 Z M 15.125 -11.828125 C 15.269531 -12.546875 15.34375 -13.21875 15.34375 -13.84375 C 15.34375 -14.96875 15.0625 -15.828125 14.5 -16.421875 C 13.945312 -17.023438 13.054688 -17.328125 11.828125 -17.328125 C 10.953125 -17.328125 10.175781 -17.175781 9.5 -16.875 C 8.832031 -16.582031 8.234375 -16.113281 7.703125 -15.46875 C 6.992188 -14.59375 6.367188 -13.378906 5.828125 -11.828125 Z M 15.125 -11.828125 "/></g></g></g><g fill="#051d40" fill-opacity="1"><g transform="translate(729.722813, 41.998625)"><g><path d="M 3.109375 -4.40625 C 3.429688 -3.695312 3.910156 -3.140625 4.546875 -2.734375 C 5.191406 -2.328125 6.101562 -2.125 7.28125 -2.125 C 7.820312 -2.125 8.378906 -2.175781 8.953125 -2.28125 C 9.523438 -2.382812 10.046875 -2.5625 10.515625 -2.8125 C 10.984375 -3.0625 11.367188 -3.382812 11.671875 -3.78125 C 11.972656 -4.1875 12.125 -4.6875 12.125 -5.28125 C 12.125 -5.570312 12.085938 -5.847656 12.015625 -6.109375 C 11.941406 -6.367188 11.773438 -6.625 11.515625 -6.875 C 11.253906 -7.125 10.867188 -7.375 10.359375 -7.625 C 9.859375 -7.882812 9.175781 -8.160156 8.3125 -8.453125 C 7.289062 -8.785156 6.445312 -9.128906 5.78125 -9.484375 C 5.113281 -9.835938 4.582031 -10.21875 4.1875 -10.625 C 3.789062 -11.03125 3.507812 -11.476562 3.34375 -11.96875 C 3.1875 -12.457031 3.109375 -13.015625 3.109375 -13.640625 C 3.109375 -14.515625 3.273438 -15.332031 3.609375 -16.09375 C 3.953125 -16.863281 4.445312 -17.535156 5.09375 -18.109375 C 5.75 -18.679688 6.546875 -19.132812 7.484375 -19.46875 C 8.421875 -19.800781 9.492188 -19.96875 10.703125 -19.96875 C 11.628906 -19.96875 12.4375 -19.878906 13.125 -19.703125 C 13.820312 -19.535156 14.425781 -19.300781 14.9375 -19 C 15.457031 -18.695312 15.890625 -18.335938 16.234375 -17.921875 C 16.585938 -17.515625 16.890625 -17.0625 17.140625 -16.5625 L 14.46875 -15.015625 C 14.375 -15.234375 14.238281 -15.472656 14.0625 -15.734375 C 13.882812 -16.003906 13.632812 -16.253906 13.3125 -16.484375 C 12.988281 -16.710938 12.585938 -16.898438 12.109375 -17.046875 C 11.640625 -17.203125 11.066406 -17.28125 10.390625 -17.28125 C 9.753906 -17.28125 9.179688 -17.203125 8.671875 -17.046875 C 8.160156 -16.890625 7.722656 -16.671875 7.359375 -16.390625 C 6.992188 -16.109375 6.710938 -15.773438 6.515625 -15.390625 C 6.316406 -15.015625 6.21875 -14.609375 6.21875 -14.171875 C 6.21875 -13.890625 6.257812 -13.613281 6.34375 -13.34375 C 6.4375 -13.070312 6.597656 -12.804688 6.828125 -12.546875 C 7.066406 -12.296875 7.390625 -12.054688 7.796875 -11.828125 C 8.203125 -11.609375 8.722656 -11.40625 9.359375 -11.21875 C 10.492188 -10.875 11.441406 -10.523438 12.203125 -10.171875 C 12.972656 -9.816406 13.585938 -9.421875 14.046875 -8.984375 C 14.503906 -8.554688 14.828125 -8.066406 15.015625 -7.515625 C 15.210938 -6.972656 15.3125 -6.335938 15.3125 -5.609375 C 15.3125 -4.753906 15.128906 -3.953125 14.765625 -3.203125 C 14.410156 -2.453125 13.882812 -1.796875 13.1875 -1.234375 C 12.5 -0.679688 11.640625 -0.242188 10.609375 0.078125 C 9.578125 0.410156 8.390625 0.578125 7.046875 0.578125 C 5.972656 0.578125 5.046875 0.476562 4.265625 0.28125 C 3.492188 0.0820312 2.835938 -0.175781 2.296875 -0.5 C 1.765625 -0.832031 1.34375 -1.207031 1.03125 -1.625 C 0.726562 -2.050781 0.507812 -2.484375 0.375 -2.921875 Z M 3.109375 -4.40625 "/></g></g></g><g fill="#051d40" fill-opacity="1"><g transform="translate(747.692763, 41.998625)"><g><path d="M 5.640625 -2.578125 C 5.640625 -2.285156 5.609375 -1.992188 5.546875 -1.703125 C 5.484375 -1.421875 5.378906 -1.144531 5.234375 -0.875 C 5.003906 -0.445312 4.695312 -0.148438 4.3125 0.015625 C 3.925781 0.179688 3.453125 0.265625 2.890625 0.265625 C 2.191406 0.265625 1.703125 0.148438 1.421875 -0.078125 C 1.148438 -0.304688 1.015625 -0.632812 1.015625 -1.0625 C 1.015625 -1.300781 1.046875 -1.5625 1.109375 -1.84375 C 1.179688 -2.132812 1.28125 -2.398438 1.40625 -2.640625 C 1.59375 -3.078125 1.875 -3.394531 2.25 -3.59375 C 2.625 -3.800781 3.125 -3.90625 3.75 -3.90625 C 4.414062 -3.90625 4.894531 -3.796875 5.1875 -3.578125 C 5.488281 -3.359375 5.640625 -3.023438 5.640625 -2.578125 Z M 5.640625 -2.578125 "/></g></g></g></g></g></svg>